%TF.GenerationSoftware,KiCad,Pcbnew,9.0.0*%
%TF.CreationDate,2025-03-19T14:29:07+05:00*%
%TF.ProjectId,TC_OAMP,54435f4f-414d-4502-9e6b-696361645f70,rev?*%
%TF.SameCoordinates,Original*%
%TF.FileFunction,Soldermask,Bot*%
%TF.FilePolarity,Negative*%
%FSLAX46Y46*%
G04 Gerber Fmt 4.6, Leading zero omitted, Abs format (unit mm)*
G04 Created by KiCad (PCBNEW 9.0.0) date 2025-03-19 14:29:07*
%MOMM*%
%LPD*%
G01*
G04 APERTURE LIST*
G04 Aperture macros list*
%AMRoundRect*
0 Rectangle with rounded corners*
0 $1 Rounding radius*
0 $2 $3 $4 $5 $6 $7 $8 $9 X,Y pos of 4 corners*
0 Add a 4 corners polygon primitive as box body*
4,1,4,$2,$3,$4,$5,$6,$7,$8,$9,$2,$3,0*
0 Add four circle primitives for the rounded corners*
1,1,$1+$1,$2,$3*
1,1,$1+$1,$4,$5*
1,1,$1+$1,$6,$7*
1,1,$1+$1,$8,$9*
0 Add four rect primitives between the rounded corners*
20,1,$1+$1,$2,$3,$4,$5,0*
20,1,$1+$1,$4,$5,$6,$7,0*
20,1,$1+$1,$6,$7,$8,$9,0*
20,1,$1+$1,$8,$9,$2,$3,0*%
G04 Aperture macros list end*
%ADD10RoundRect,0.250000X-0.650000X-1.550000X0.650000X-1.550000X0.650000X1.550000X-0.650000X1.550000X0*%
%ADD11O,1.800000X3.600000*%
%ADD12RoundRect,0.675000X-0.675000X-0.675000X0.675000X-0.675000X0.675000X0.675000X-0.675000X0.675000X0*%
%ADD13C,2.700000*%
%ADD14RoundRect,0.250000X0.600000X-0.600000X0.600000X0.600000X-0.600000X0.600000X-0.600000X-0.600000X0*%
%ADD15C,1.700000*%
G04 APERTURE END LIST*
D10*
%TO.C,X6*%
X187640000Y-68850000D03*
D11*
X192720000Y-68850000D03*
X197800000Y-68850000D03*
%TD*%
D10*
%TO.C,X3*%
X134780000Y-68850000D03*
D11*
X139860000Y-68850000D03*
X144940000Y-68850000D03*
%TD*%
D10*
%TO.C,X10*%
X157160000Y-144350000D03*
D11*
X162240000Y-144350000D03*
X167320000Y-144350000D03*
%TD*%
D10*
%TO.C,X1*%
X105000000Y-68850000D03*
D11*
X110080000Y-68850000D03*
X115160000Y-68850000D03*
%TD*%
D10*
%TO.C,X7*%
X105000000Y-144350000D03*
D11*
X110080000Y-144350000D03*
X115160000Y-144350000D03*
%TD*%
D10*
%TO.C,X8*%
X119890000Y-144350000D03*
D11*
X124970000Y-144350000D03*
X130050000Y-144350000D03*
%TD*%
D10*
%TO.C,X4*%
X157160000Y-68850000D03*
D11*
X162240000Y-68850000D03*
X167320000Y-68850000D03*
%TD*%
D10*
%TO.C,X11*%
X172400000Y-144350000D03*
D11*
X177480000Y-144350000D03*
X182560000Y-144350000D03*
%TD*%
D10*
%TO.C,X2*%
X119890000Y-68850000D03*
D11*
X124970000Y-68850000D03*
X130050000Y-68850000D03*
%TD*%
D10*
%TO.C,X5*%
X172400000Y-68850000D03*
D11*
X177480000Y-68850000D03*
X182560000Y-68850000D03*
%TD*%
D12*
%TO.C,F1*%
X160479999Y-131170000D03*
X167239999Y-131170000D03*
D13*
X174519999Y-131170000D03*
X181279999Y-131170000D03*
%TD*%
D10*
%TO.C,X12*%
X187640000Y-144350000D03*
D11*
X192720000Y-144350000D03*
X197800000Y-144350000D03*
%TD*%
D10*
%TO.C,X9*%
X134780000Y-144350000D03*
D11*
X139860000Y-144350000D03*
X144940000Y-144350000D03*
%TD*%
D14*
%TO.C,X13*%
X148610000Y-122880000D03*
D15*
X148610000Y-120340000D03*
X151150000Y-122880000D03*
X151150000Y-120340000D03*
X153689999Y-122880000D03*
X153690000Y-120340000D03*
X156230000Y-122880000D03*
X156230000Y-120340000D03*
X158770000Y-122880000D03*
X158770000Y-120340000D03*
X161310000Y-122880000D03*
X161310000Y-120340000D03*
%TD*%
M02*
