  0
SECTION
  2
HEADER
  9
$ANGBASE
  50
0.0
  9
$ANGDIR
  70
1
  9
$MEASUREMENT
  70
0
  0
ENDSEC
  0
SECTION
  2
TABLES
  0
TABLE
  2
LTYPE
  70
4
  0
LTYPE
  5
40F
  2
CONTINUOUS
  70
0
  3
Solid line
  72
65
  73
0
  40
0.0
  0
LTYPE
  5
410
  2
DASHDOT
 70
0
  3
Dash Dot ____ _ ____ _
 72
65
 73
4
 40
2.0
 49
1.25
 49
-0.25
 49
0.25
 49
-0.25
  0
LTYPE
  5
411
  2
DASHED
 70
0
  3
Dashed __ __ __ __ __
 72
65
 73
2
 40
0.75
 49
0.5
 49
-0.25
  0
LTYPE
  5
43B
  2
DOTTED
 70
0
  3
Dotted .  .  .  .
 72
65
 73
2
 40
0.2
 49
0.0
 49
-0.2
  0
ENDTAB
  0
TABLE
  2
STYLE
  70
4
  0
STYLE
  2
KICAD
  70
0
  40
0
  41
1
  42
1
  50
0
  71
0
  3
isocp.shx
  0
STYLE
  2
KICADB
  70
0
  40
0
  41
1
  42
1
  50
0
  71
0
  3
isocp.shx
  0
STYLE
  2
KICADI
  70
0
  40
0
  41
1
  42
1
  50
15
  71
0
  3
isocp.shx
  0
STYLE
  2
KICADBI
  70
0
  40
0
  41
1
  42
1
  50
15
  71
0
  3
isocp.shx
  0
ENDTAB
  0
TABLE
  2
LAYER
  70
1
  0
LAYER
  2
BLACK
  70
0
  62
7
  6
CONTINUOUS
  0
ENDTAB
  0
ENDSEC
  0
SECTION
  2
ENTITIES
0
LINE
8
BLACK
6
CONTINUOUS
10
4.1478741732283462
20
-4.7943754330708659
11
4.1568343307086613
21
-4.7972867716535434
0
LINE
8
BLACK
6
CONTINUOUS
10
4.1568343307086613
20
-4.7972867716535434
11
4.1652287401574801
21
-4.8015639370078738
0
LINE
8
BLACK
6
CONTINUOUS
10
4.1652287401574801
20
-4.8015639370078738
11
4.1728507086614171
21
-4.8071016141732281
0
LINE
8
BLACK
6
CONTINUOUS
10
4.1728507086614171
20
-4.8071016141732281
11
4.1795125590551176
21
-4.8137634645669287
0
LINE
8
BLACK
6
CONTINUOUS
10
4.1795125590551176
20
-4.8137634645669287
11
4.185050236220472
21
-4.8213854330708656
0
LINE
8
BLACK
6
CONTINUOUS
10
4.185050236220472
20
-4.8213854330708656
11
4.1893274015748032
21
-4.8297798425196845
0
LINE
8
BLACK
6
CONTINUOUS
10
4.1893274015748032
20
-4.8297798425196845
11
4.1922387401574799
21
-4.8387399999999996
0
LINE
8
BLACK
6
CONTINUOUS
10
4.1922387401574799
20
-4.8387399999999996
11
4.1937125590551183
21
-4.8480452755905512
0
LINE
8
BLACK
6
CONTINUOUS
10
4.1937125590551183
20
-4.8480452755905512
11
4.1937125590551183
21
-4.8574665354330708
0
LINE
8
BLACK
6
CONTINUOUS
10
4.1937125590551183
20
-4.8574665354330708
11
4.1922387401574799
21
-4.8667718110236216
0
LINE
8
BLACK
6
CONTINUOUS
10
4.1922387401574799
20
-4.8667718110236216
11
4.1893274015748032
21
-4.8757319685039366
0
LINE
8
BLACK
6
CONTINUOUS
10
4.1893274015748032
20
-4.8757319685039366
11
4.185050236220472
21
-4.8841263779527555
0
LINE
8
BLACK
6
CONTINUOUS
10
4.185050236220472
20
-4.8841263779527555
11
4.1795125590551176
21
-4.8917483464566924
0
LINE
8
BLACK
6
CONTINUOUS
10
4.1795125590551176
20
-4.8917483464566924
11
4.1728507086614171
21
-4.8984101968503939
0
LINE
8
BLACK
6
CONTINUOUS
10
4.1728507086614171
20
-4.8984101968503939
11
4.1652287401574801
21
-4.9039478740157483
0
LINE
8
BLACK
6
CONTINUOUS
10
4.1652287401574801
20
-4.9039478740157483
11
4.1568343307086613
21
-4.9082250393700786
0
LINE
8
BLACK
6
CONTINUOUS
10
4.1568343307086613
20
-4.9082250393700786
11
4.1478741732283462
21
-4.9111363779527561
0
LINE
8
BLACK
6
CONTINUOUS
10
4.1478741732283462
20
-4.9111363779527561
11
4.1385688976377955
21
-4.9126101968503937
0
LINE
8
BLACK
6
CONTINUOUS
10
4.1385688976377955
20
-4.9126101968503937
11
4.1291476377952758
21
-4.9126101968503937
0
LINE
8
BLACK
6
CONTINUOUS
10
4.1291476377952758
20
-4.9126101968503937
11
4.1198423622047242
21
-4.9111363779527561
0
LINE
8
BLACK
6
CONTINUOUS
10
4.1198423622047242
20
-4.9111363779527561
11
4.1108822047244091
21
-4.9082250393700786
0
LINE
8
BLACK
6
CONTINUOUS
10
4.1108822047244091
20
-4.9082250393700786
11
4.1024877952755903
21
-4.9039478740157483
0
LINE
8
BLACK
6
CONTINUOUS
10
4.1024877952755903
20
-4.9039478740157483
11
4.0948658267716533
21
-4.8984101968503939
0
LINE
8
BLACK
6
CONTINUOUS
10
4.0948658267716533
20
-4.8984101968503939
11
4.0882039763779527
21
-4.8917483464566924
0
LINE
8
BLACK
6
CONTINUOUS
10
4.0882039763779527
20
-4.8917483464566924
11
4.0826662992125984
21
-4.8841263779527555
0
LINE
8
BLACK
6
CONTINUOUS
10
4.0826662992125984
20
-4.8841263779527555
11
4.0783891338582681
21
-4.8757319685039366
0
LINE
8
BLACK
6
CONTINUOUS
10
4.0783891338582681
20
-4.8757319685039366
11
4.0754777952755905
21
-4.8667718110236216
0
LINE
8
BLACK
6
CONTINUOUS
10
4.0754777952755905
20
-4.8667718110236216
11
4.074003976377953
21
-4.8574665354330708
0
LINE
8
BLACK
6
CONTINUOUS
10
4.074003976377953
20
-4.8574665354330708
11
4.074003976377953
21
-4.84818562992126
0
LINE
8
BLACK
6
CONTINUOUS
10
4.074003976377953
20
-4.84818562992126
11
4.074003976377953
21
-4.8480452755905512
0
LINE
8
BLACK
6
CONTINUOUS
10
4.074003976377953
20
-4.8480452755905512
11
4.0754777952755905
21
-4.8387399999999996
0
LINE
8
BLACK
6
CONTINUOUS
10
4.0754777952755905
20
-4.8387399999999996
11
4.0783891338582681
21
-4.8297798425196845
0
LINE
8
BLACK
6
CONTINUOUS
10
4.0783891338582681
20
-4.8297798425196845
11
4.0826662992125984
21
-4.8213854330708656
0
LINE
8
BLACK
6
CONTINUOUS
10
4.0826662992125984
20
-4.8213854330708656
11
4.0882039763779527
21
-4.8137634645669287
0
LINE
8
BLACK
6
CONTINUOUS
10
4.0882039763779527
20
-4.8137634645669287
11
4.0948658267716533
21
-4.8071016141732281
0
LINE
8
BLACK
6
CONTINUOUS
10
4.0948658267716533
20
-4.8071016141732281
11
4.1024877952755903
21
-4.8015639370078738
0
LINE
8
BLACK
6
CONTINUOUS
10
4.1024877952755903
20
-4.8015639370078738
11
4.1108822047244091
21
-4.7972867716535434
0
LINE
8
BLACK
6
CONTINUOUS
10
4.1108822047244091
20
-4.7972867716535434
11
4.1198423622047242
21
-4.7943754330708659
0
LINE
8
BLACK
6
CONTINUOUS
10
4.1198423622047242
20
-4.7943754330708659
11
4.1291476377952758
21
-4.7929016141732284
0
LINE
8
BLACK
6
CONTINUOUS
10
4.1291476377952758
20
-4.7929016141732284
11
4.1385688976377955
21
-4.7929016141732284
0
LINE
8
BLACK
6
CONTINUOUS
10
4.1385688976377955
20
-4.7929016141732284
11
4.1478741732283462
21
-4.7943754330708659
0
LINE
8
BLACK
6
CONTINUOUS
10
4.0757874015748028
20
-4.857326181102362
11
4.0772172834645666
21
-4.8663542125984254
0
LINE
8
BLACK
6
CONTINUOUS
10
4.0772172834645666
20
-4.8663542125984254
11
4.0800418897637796
21
-4.8750473622047243
0
LINE
8
BLACK
6
CONTINUOUS
10
4.0800418897637796
20
-4.8750473622047243
11
4.0841916141732284
21
-4.8831916535433066
0
LINE
8
BLACK
6
CONTINUOUS
10
4.0841916141732284
20
-4.8831916535433066
11
4.0895642913385828
21
-4.8905865354330711
0
LINE
8
BLACK
6
CONTINUOUS
10
4.0895642913385828
20
-4.8905865354330711
11
4.0960276377952756
21
-4.8970498818897639
0
LINE
8
BLACK
6
CONTINUOUS
10
4.0960276377952756
20
-4.8970498818897639
11
4.1034225196850391
21
-4.9024225590551183
0
LINE
8
BLACK
6
CONTINUOUS
10
4.1034225196850391
20
-4.9024225590551183
11
4.1115668110236223
21
-4.9065722834645671
0
LINE
8
BLACK
6
CONTINUOUS
10
4.1115668110236223
20
-4.9065722834645671
11
4.1202599606299213
21
-4.9093968897637792
0
LINE
8
BLACK
6
CONTINUOUS
10
4.1202599606299213
20
-4.9093968897637792
11
4.1292879921259837
21
-4.910826771653543
0
LINE
8
BLACK
6
CONTINUOUS
10
4.1292879921259837
20
-4.910826771653543
11
4.1384285433070866
21
-4.910826771653543
0
LINE
8
BLACK
6
CONTINUOUS
10
4.1384285433070866
20
-4.910826771653543
11
4.1474565748031491
21
-4.9093968897637792
0
LINE
8
BLACK
6
CONTINUOUS
10
4.1474565748031491
20
-4.9093968897637792
11
4.156149724409449
21
-4.9065722834645671
0
LINE
8
BLACK
6
CONTINUOUS
10
4.156149724409449
20
-4.9065722834645671
11
4.1642940157480313
21
-4.9024225590551183
0
LINE
8
BLACK
6
CONTINUOUS
10
4.1642940157480313
20
-4.9024225590551183
11
4.1716888976377948
21
-4.8970498818897639
0
LINE
8
BLACK
6
CONTINUOUS
10
4.1716888976377948
20
-4.8970498818897639
11
4.1781522440944885
21
-4.8905865354330711
0
LINE
8
BLACK
6
CONTINUOUS
10
4.1781522440944885
20
-4.8905865354330711
11
4.183524921259842
21
-4.8831916535433066
0
LINE
8
BLACK
6
CONTINUOUS
10
4.183524921259842
20
-4.8831916535433066
11
4.1876746456692908
21
-4.8750473622047243
0
LINE
8
BLACK
6
CONTINUOUS
10
4.1876746456692908
20
-4.8750473622047243
11
4.1904992519685038
21
-4.8663542125984254
0
LINE
8
BLACK
6
CONTINUOUS
10
4.1904992519685038
20
-4.8663542125984254
11
4.1919291338582676
21
-4.857326181102362
0
LINE
8
BLACK
6
CONTINUOUS
10
4.1919291338582676
20
-4.857326181102362
11
4.1919291338582676
21
-4.84818562992126
0
LINE
8
BLACK
6
CONTINUOUS
10
4.1919291338582676
20
-4.84818562992126
11
4.1904992519685038
21
-4.8391575984251967
0
LINE
8
BLACK
6
CONTINUOUS
10
4.1904992519685038
20
-4.8391575984251967
11
4.1876746456692908
21
-4.8304644488188977
0
LINE
8
BLACK
6
CONTINUOUS
10
4.1876746456692908
20
-4.8304644488188977
11
4.183524921259842
21
-4.8223201574803145
0
LINE
8
BLACK
6
CONTINUOUS
10
4.183524921259842
20
-4.8223201574803145
11
4.1781522440944885
21
-4.8149252755905509
0
LINE
8
BLACK
6
CONTINUOUS
10
4.1781522440944885
20
-4.8149252755905509
11
4.1716888976377948
21
-4.8084619291338582
0
LINE
8
BLACK
6
CONTINUOUS
10
4.1716888976377948
20
-4.8084619291338582
11
4.1642940157480313
21
-4.8030892519685038
0
LINE
8
BLACK
6
CONTINUOUS
10
4.1642940157480313
20
-4.8030892519685038
11
4.156149724409449
21
-4.798939527559055
0
LINE
8
BLACK
6
CONTINUOUS
10
4.156149724409449
20
-4.798939527559055
11
4.1474565748031491
21
-4.7961149212598428
0
LINE
8
BLACK
6
CONTINUOUS
10
4.1474565748031491
20
-4.7961149212598428
11
4.1384285433070866
21
-4.7946850393700791
0
LINE
8
BLACK
6
CONTINUOUS
10
4.1384285433070866
20
-4.7946850393700791
11
4.1292879921259837
21
-4.7946850393700791
0
LINE
8
BLACK
6
CONTINUOUS
10
4.1292879921259837
20
-4.7946850393700791
11
4.1202599606299213
21
-4.7961149212598428
0
LINE
8
BLACK
6
CONTINUOUS
10
4.1202599606299213
20
-4.7961149212598428
11
4.1115668110236223
21
-4.798939527559055
0
LINE
8
BLACK
6
CONTINUOUS
10
4.1115668110236223
20
-4.798939527559055
11
4.1034225196850391
21
-4.8030892519685038
0
LINE
8
BLACK
6
CONTINUOUS
10
4.1034225196850391
20
-4.8030892519685038
11
4.0960276377952756
21
-4.8084619291338582
0
LINE
8
BLACK
6
CONTINUOUS
10
4.0960276377952756
20
-4.8084619291338582
11
4.0895642913385828
21
-4.8149252755905509
0
LINE
8
BLACK
6
CONTINUOUS
10
4.0895642913385828
20
-4.8149252755905509
11
4.0841916141732284
21
-4.8223201574803145
0
LINE
8
BLACK
6
CONTINUOUS
10
4.0841916141732284
20
-4.8223201574803145
11
4.0800418897637796
21
-4.8304644488188977
0
LINE
8
BLACK
6
CONTINUOUS
10
4.0800418897637796
20
-4.8304644488188977
11
4.0772172834645666
21
-4.8391575984251967
0
LINE
8
BLACK
6
CONTINUOUS
10
4.0772172834645666
20
-4.8391575984251967
11
4.0757874015748028
21
-4.84818562992126
0
LINE
8
BLACK
6
CONTINUOUS
10
4.0757874015748028
20
-4.84818562992126
11
4.0757874015748028
21
-4.857326181102362
0
LINE
8
BLACK
6
CONTINUOUS
10
7.8014174803149601
20
-4.7943754330708659
11
7.8103776377952752
21
-4.7972867716535434
0
LINE
8
BLACK
6
CONTINUOUS
10
7.8103776377952752
20
-4.7972867716535434
11
7.818772047244094
21
-4.8015639370078738
0
LINE
8
BLACK
6
CONTINUOUS
10
7.818772047244094
20
-4.8015639370078738
11
7.826394015748031
21
-4.8071016141732281
0
LINE
8
BLACK
6
CONTINUOUS
10
7.826394015748031
20
-4.8071016141732281
11
7.8330558661417324
21
-4.8137634645669287
0
LINE
8
BLACK
6
CONTINUOUS
10
7.8330558661417324
20
-4.8137634645669287
11
7.8385935433070868
21
-4.8213854330708656
0
LINE
8
BLACK
6
CONTINUOUS
10
7.8385935433070868
20
-4.8213854330708656
11
7.8428707086614171
21
-4.8297798425196845
0
LINE
8
BLACK
6
CONTINUOUS
10
7.8428707086614171
20
-4.8297798425196845
11
7.8457820472440947
21
-4.8387399999999996
0
LINE
8
BLACK
6
CONTINUOUS
10
7.8457820472440947
20
-4.8387399999999996
11
7.8472558661417322
21
-4.8480452755905512
0
LINE
8
BLACK
6
CONTINUOUS
10
7.8472558661417322
20
-4.8480452755905512
11
7.8472558661417322
21
-4.8574665354330708
0
LINE
8
BLACK
6
CONTINUOUS
10
7.8472558661417322
20
-4.8574665354330708
11
7.8457820472440947
21
-4.8667718110236216
0
LINE
8
BLACK
6
CONTINUOUS
10
7.8457820472440947
20
-4.8667718110236216
11
7.8428707086614171
21
-4.8757319685039366
0
LINE
8
BLACK
6
CONTINUOUS
10
7.8428707086614171
20
-4.8757319685039366
11
7.8385935433070868
21
-4.8841263779527555
0
LINE
8
BLACK
6
CONTINUOUS
10
7.8385935433070868
20
-4.8841263779527555
11
7.8330558661417324
21
-4.8917483464566924
0
LINE
8
BLACK
6
CONTINUOUS
10
7.8330558661417324
20
-4.8917483464566924
11
7.826394015748031
21
-4.8984101968503939
0
LINE
8
BLACK
6
CONTINUOUS
10
7.826394015748031
20
-4.8984101968503939
11
7.818772047244094
21
-4.9039478740157483
0
LINE
8
BLACK
6
CONTINUOUS
10
7.818772047244094
20
-4.9039478740157483
11
7.8103776377952752
21
-4.9082250393700786
0
LINE
8
BLACK
6
CONTINUOUS
10
7.8103776377952752
20
-4.9082250393700786
11
7.8014174803149601
21
-4.9111363779527561
0
LINE
8
BLACK
6
CONTINUOUS
10
7.8014174803149601
20
-4.9111363779527561
11
7.7921122047244094
21
-4.9126101968503937
0
LINE
8
BLACK
6
CONTINUOUS
10
7.7921122047244094
20
-4.9126101968503937
11
7.7826909448818897
21
-4.9126101968503937
0
LINE
8
BLACK
6
CONTINUOUS
10
7.7826909448818897
20
-4.9126101968503937
11
7.7733856692913381
21
-4.9111363779527561
0
LINE
8
BLACK
6
CONTINUOUS
10
7.7733856692913381
20
-4.9111363779527561
11
7.764425511811023
21
-4.9082250393700786
0
LINE
8
BLACK
6
CONTINUOUS
10
7.764425511811023
20
-4.9082250393700786
11
7.7560311023622042
21
-4.9039478740157483
0
LINE
8
BLACK
6
CONTINUOUS
10
7.7560311023622042
20
-4.9039478740157483
11
7.7484091338582672
21
-4.8984101968503939
0
LINE
8
BLACK
6
CONTINUOUS
10
7.7484091338582672
20
-4.8984101968503939
11
7.7417472834645666
21
-4.8917483464566924
0
LINE
8
BLACK
6
CONTINUOUS
10
7.7417472834645666
20
-4.8917483464566924
11
7.7362096062992123
21
-4.8841263779527555
0
LINE
8
BLACK
6
CONTINUOUS
10
7.7362096062992123
20
-4.8841263779527555
11
7.731932440944882
21
-4.8757319685039366
0
LINE
8
BLACK
6
CONTINUOUS
10
7.731932440944882
20
-4.8757319685039366
11
7.7290211023622044
21
-4.8667718110236216
0
LINE
8
BLACK
6
CONTINUOUS
10
7.7290211023622044
20
-4.8667718110236216
11
7.7275472834645669
21
-4.8574665354330708
0
LINE
8
BLACK
6
CONTINUOUS
10
7.7275472834645669
20
-4.8574665354330708
11
7.7275472834645669
21
-4.84818562992126
0
LINE
8
BLACK
6
CONTINUOUS
10
7.7275472834645669
20
-4.84818562992126
11
7.7275472834645669
21
-4.8480452755905512
0
LINE
8
BLACK
6
CONTINUOUS
10
7.7275472834645669
20
-4.8480452755905512
11
7.7290211023622044
21
-4.8387399999999996
0
LINE
8
BLACK
6
CONTINUOUS
10
7.7290211023622044
20
-4.8387399999999996
11
7.731932440944882
21
-4.8297798425196845
0
LINE
8
BLACK
6
CONTINUOUS
10
7.731932440944882
20
-4.8297798425196845
11
7.7362096062992123
21
-4.8213854330708656
0
LINE
8
BLACK
6
CONTINUOUS
10
7.7362096062992123
20
-4.8213854330708656
11
7.7417472834645666
21
-4.8137634645669287
0
LINE
8
BLACK
6
CONTINUOUS
10
7.7417472834645666
20
-4.8137634645669287
11
7.7484091338582672
21
-4.8071016141732281
0
LINE
8
BLACK
6
CONTINUOUS
10
7.7484091338582672
20
-4.8071016141732281
11
7.7560311023622042
21
-4.8015639370078738
0
LINE
8
BLACK
6
CONTINUOUS
10
7.7560311023622042
20
-4.8015639370078738
11
7.764425511811023
21
-4.7972867716535434
0
LINE
8
BLACK
6
CONTINUOUS
10
7.764425511811023
20
-4.7972867716535434
11
7.7733856692913381
21
-4.7943754330708659
0
LINE
8
BLACK
6
CONTINUOUS
10
7.7733856692913381
20
-4.7943754330708659
11
7.7826909448818897
21
-4.7929016141732284
0
LINE
8
BLACK
6
CONTINUOUS
10
7.7826909448818897
20
-4.7929016141732284
11
7.7921122047244094
21
-4.7929016141732284
0
LINE
8
BLACK
6
CONTINUOUS
10
7.7921122047244094
20
-4.7929016141732284
11
7.8014174803149601
21
-4.7943754330708659
0
LINE
8
BLACK
6
CONTINUOUS
10
7.7293307086614176
20
-4.857326181102362
11
7.7307605905511814
21
-4.8663542125984254
0
LINE
8
BLACK
6
CONTINUOUS
10
7.7307605905511814
20
-4.8663542125984254
11
7.7335851968503935
21
-4.8750473622047243
0
LINE
8
BLACK
6
CONTINUOUS
10
7.7335851968503935
20
-4.8750473622047243
11
7.7377349212598423
21
-4.8831916535433066
0
LINE
8
BLACK
6
CONTINUOUS
10
7.7377349212598423
20
-4.8831916535433066
11
7.7431075984251967
21
-4.8905865354330711
0
LINE
8
BLACK
6
CONTINUOUS
10
7.7431075984251967
20
-4.8905865354330711
11
7.7495709448818895
21
-4.8970498818897639
0
LINE
8
BLACK
6
CONTINUOUS
10
7.7495709448818895
20
-4.8970498818897639
11
7.756965826771653
21
-4.9024225590551183
0
LINE
8
BLACK
6
CONTINUOUS
10
7.756965826771653
20
-4.9024225590551183
11
7.7651101181102362
21
-4.9065722834645671
0
LINE
8
BLACK
6
CONTINUOUS
10
7.7651101181102362
20
-4.9065722834645671
11
7.7738032677165352
21
-4.9093968897637792
0
LINE
8
BLACK
6
CONTINUOUS
10
7.7738032677165352
20
-4.9093968897637792
11
7.7828312992125985
21
-4.910826771653543
0
LINE
8
BLACK
6
CONTINUOUS
10
7.7828312992125985
20
-4.910826771653543
11
7.7919718503937005
21
-4.910826771653543
0
LINE
8
BLACK
6
CONTINUOUS
10
7.7919718503937005
20
-4.910826771653543
11
7.8009998818897639
21
-4.9093968897637792
0
LINE
8
BLACK
6
CONTINUOUS
10
7.8009998818897639
20
-4.9093968897637792
11
7.8096930314960629
21
-4.9065722834645671
0
LINE
8
BLACK
6
CONTINUOUS
10
7.8096930314960629
20
-4.9065722834645671
11
7.8178373228346452
21
-4.9024225590551183
0
LINE
8
BLACK
6
CONTINUOUS
10
7.8178373228346452
20
-4.9024225590551183
11
7.8252322047244096
21
-4.8970498818897639
0
LINE
8
BLACK
6
CONTINUOUS
10
7.8252322047244096
20
-4.8970498818897639
11
7.8316955511811024
21
-4.8905865354330711
0
LINE
8
BLACK
6
CONTINUOUS
10
7.8316955511811024
20
-4.8905865354330711
11
7.8370682283464568
21
-4.8831916535433066
0
LINE
8
BLACK
6
CONTINUOUS
10
7.8370682283464568
20
-4.8831916535433066
11
7.8412179527559056
21
-4.8750473622047243
0
LINE
8
BLACK
6
CONTINUOUS
10
7.8412179527559056
20
-4.8750473622047243
11
7.8440425590551177
21
-4.8663542125984254
0
LINE
8
BLACK
6
CONTINUOUS
10
7.8440425590551177
20
-4.8663542125984254
11
7.8454724409448815
21
-4.857326181102362
0
LINE
8
BLACK
6
CONTINUOUS
10
7.8454724409448815
20
-4.857326181102362
11
7.8454724409448815
21
-4.84818562992126
0
LINE
8
BLACK
6
CONTINUOUS
10
7.8454724409448815
20
-4.84818562992126
11
7.8440425590551177
21
-4.8391575984251967
0
LINE
8
BLACK
6
CONTINUOUS
10
7.8440425590551177
20
-4.8391575984251967
11
7.8412179527559056
21
-4.8304644488188977
0
LINE
8
BLACK
6
CONTINUOUS
10
7.8412179527559056
20
-4.8304644488188977
11
7.8370682283464568
21
-4.8223201574803145
0
LINE
8
BLACK
6
CONTINUOUS
10
7.8370682283464568
20
-4.8223201574803145
11
7.8316955511811024
21
-4.8149252755905509
0
LINE
8
BLACK
6
CONTINUOUS
10
7.8316955511811024
20
-4.8149252755905509
11
7.8252322047244096
21
-4.8084619291338582
0
LINE
8
BLACK
6
CONTINUOUS
10
7.8252322047244096
20
-4.8084619291338582
11
7.8178373228346452
21
-4.8030892519685038
0
LINE
8
BLACK
6
CONTINUOUS
10
7.8178373228346452
20
-4.8030892519685038
11
7.8096930314960629
21
-4.798939527559055
0
LINE
8
BLACK
6
CONTINUOUS
10
7.8096930314960629
20
-4.798939527559055
11
7.8009998818897639
21
-4.7961149212598428
0
LINE
8
BLACK
6
CONTINUOUS
10
7.8009998818897639
20
-4.7961149212598428
11
7.7919718503937005
21
-4.7946850393700791
0
LINE
8
BLACK
6
CONTINUOUS
10
7.7919718503937005
20
-4.7946850393700791
11
7.7828312992125985
21
-4.7946850393700791
0
LINE
8
BLACK
6
CONTINUOUS
10
7.7828312992125985
20
-4.7946850393700791
11
7.7738032677165352
21
-4.7961149212598428
0
LINE
8
BLACK
6
CONTINUOUS
10
7.7738032677165352
20
-4.7961149212598428
11
7.7651101181102362
21
-4.798939527559055
0
LINE
8
BLACK
6
CONTINUOUS
10
7.7651101181102362
20
-4.798939527559055
11
7.756965826771653
21
-4.8030892519685038
0
LINE
8
BLACK
6
CONTINUOUS
10
7.756965826771653
20
-4.8030892519685038
11
7.7495709448818895
21
-4.8084619291338582
0
LINE
8
BLACK
6
CONTINUOUS
10
7.7495709448818895
20
-4.8084619291338582
11
7.7431075984251967
21
-4.8149252755905509
0
LINE
8
BLACK
6
CONTINUOUS
10
7.7431075984251967
20
-4.8149252755905509
11
7.7377349212598423
21
-4.8223201574803145
0
LINE
8
BLACK
6
CONTINUOUS
10
7.7377349212598423
20
-4.8223201574803145
11
7.7335851968503935
21
-4.8304644488188977
0
LINE
8
BLACK
6
CONTINUOUS
10
7.7335851968503935
20
-4.8304644488188977
11
7.7307605905511814
21
-4.8391575984251967
0
LINE
8
BLACK
6
CONTINUOUS
10
7.7307605905511814
20
-4.8391575984251967
11
7.7293307086614176
21
-4.84818562992126
0
LINE
8
BLACK
6
CONTINUOUS
10
7.7293307086614176
20
-4.84818562992126
11
7.7293307086614176
21
-4.857326181102362
0
LINE
8
BLACK
6
CONTINUOUS
10
4.1478741732283462
20
-3.345556535433071
11
4.1568343307086613
21
-3.3484678740157481
0
LINE
8
BLACK
6
CONTINUOUS
10
4.1568343307086613
20
-3.3484678740157481
11
4.1652287401574801
21
-3.3527450393700788
0
LINE
8
BLACK
6
CONTINUOUS
10
4.1652287401574801
20
-3.3527450393700788
11
4.1728507086614171
21
-3.3582827165354332
0
LINE
8
BLACK
6
CONTINUOUS
10
4.1728507086614171
20
-3.3582827165354332
11
4.1795125590551176
21
-3.3649445669291338
0
LINE
8
BLACK
6
CONTINUOUS
10
4.1795125590551176
20
-3.3649445669291338
11
4.185050236220472
21
-3.3725665354330707
0
LINE
8
BLACK
6
CONTINUOUS
10
4.185050236220472
20
-3.3725665354330707
11
4.1893274015748032
21
-3.3809609448818896
0
LINE
8
BLACK
6
CONTINUOUS
10
4.1893274015748032
20
-3.3809609448818896
11
4.1922387401574799
21
-3.3899211023622047
0
LINE
8
BLACK
6
CONTINUOUS
10
4.1922387401574799
20
-3.3899211023622047
11
4.1937125590551183
21
-3.3992263779527558
0
LINE
8
BLACK
6
CONTINUOUS
10
4.1937125590551183
20
-3.3992263779527558
11
4.1937125590551183
21
-3.4086476377952755
0
LINE
8
BLACK
6
CONTINUOUS
10
4.1937125590551183
20
-3.4086476377952755
11
4.1922387401574799
21
-3.4179529133858266
0
LINE
8
BLACK
6
CONTINUOUS
10
4.1922387401574799
20
-3.4179529133858266
11
4.1893274015748032
21
-3.4269130708661417
0
LINE
8
BLACK
6
CONTINUOUS
10
4.1893274015748032
20
-3.4269130708661417
11
4.185050236220472
21
-3.4353074803149606
0
LINE
8
BLACK
6
CONTINUOUS
10
4.185050236220472
20
-3.4353074803149606
11
4.1795125590551176
21
-3.4429294488188975
0
LINE
8
BLACK
6
CONTINUOUS
10
4.1795125590551176
20
-3.4429294488188975
11
4.1728507086614171
21
-3.4495912992125985
0
LINE
8
BLACK
6
CONTINUOUS
10
4.1728507086614171
20
-3.4495912992125985
11
4.1652287401574801
21
-3.4551289763779525
0
LINE
8
BLACK
6
CONTINUOUS
10
4.1652287401574801
20
-3.4551289763779525
11
4.1568343307086613
21
-3.4594061417322832
0
LINE
8
BLACK
6
CONTINUOUS
10
4.1568343307086613
20
-3.4594061417322832
11
4.1478741732283462
21
-3.4623174803149603
0
LINE
8
BLACK
6
CONTINUOUS
10
4.1478741732283462
20
-3.4623174803149603
11
4.1385688976377955
21
-3.4637912992125983
0
LINE
8
BLACK
6
CONTINUOUS
10
4.1385688976377955
20
-3.4637912992125983
11
4.1291476377952758
21
-3.4637912992125983
0
LINE
8
BLACK
6
CONTINUOUS
10
4.1291476377952758
20
-3.4637912992125983
11
4.1198423622047242
21
-3.4623174803149603
0
LINE
8
BLACK
6
CONTINUOUS
10
4.1198423622047242
20
-3.4623174803149603
11
4.1108822047244091
21
-3.4594061417322832
0
LINE
8
BLACK
6
CONTINUOUS
10
4.1108822047244091
20
-3.4594061417322832
11
4.1024877952755903
21
-3.4551289763779525
0
LINE
8
BLACK
6
CONTINUOUS
10
4.1024877952755903
20
-3.4551289763779525
11
4.0948658267716533
21
-3.4495912992125985
0
LINE
8
BLACK
6
CONTINUOUS
10
4.0948658267716533
20
-3.4495912992125985
11
4.0882039763779527
21
-3.4429294488188975
0
LINE
8
BLACK
6
CONTINUOUS
10
4.0882039763779527
20
-3.4429294488188975
11
4.0826662992125984
21
-3.4353074803149606
0
LINE
8
BLACK
6
CONTINUOUS
10
4.0826662992125984
20
-3.4353074803149606
11
4.0783891338582681
21
-3.4269130708661417
0
LINE
8
BLACK
6
CONTINUOUS
10
4.0783891338582681
20
-3.4269130708661417
11
4.0754777952755905
21
-3.4179529133858266
0
LINE
8
BLACK
6
CONTINUOUS
10
4.0754777952755905
20
-3.4179529133858266
11
4.074003976377953
21
-3.4086476377952755
0
LINE
8
BLACK
6
CONTINUOUS
10
4.074003976377953
20
-3.4086476377952755
11
4.074003976377953
21
-3.3993667322834646
0
LINE
8
BLACK
6
CONTINUOUS
10
4.074003976377953
20
-3.3993667322834646
11
4.074003976377953
21
-3.3992263779527558
0
LINE
8
BLACK
6
CONTINUOUS
10
4.074003976377953
20
-3.3992263779527558
11
4.0754777952755905
21
-3.3899211023622047
0
LINE
8
BLACK
6
CONTINUOUS
10
4.0754777952755905
20
-3.3899211023622047
11
4.0783891338582681
21
-3.3809609448818896
0
LINE
8
BLACK
6
CONTINUOUS
10
4.0783891338582681
20
-3.3809609448818896
11
4.0826662992125984
21
-3.3725665354330707
0
LINE
8
BLACK
6
CONTINUOUS
10
4.0826662992125984
20
-3.3725665354330707
11
4.0882039763779527
21
-3.3649445669291338
0
LINE
8
BLACK
6
CONTINUOUS
10
4.0882039763779527
20
-3.3649445669291338
11
4.0948658267716533
21
-3.3582827165354332
0
LINE
8
BLACK
6
CONTINUOUS
10
4.0948658267716533
20
-3.3582827165354332
11
4.1024877952755903
21
-3.3527450393700788
0
LINE
8
BLACK
6
CONTINUOUS
10
4.1024877952755903
20
-3.3527450393700788
11
4.1108822047244091
21
-3.3484678740157481
0
LINE
8
BLACK
6
CONTINUOUS
10
4.1108822047244091
20
-3.3484678740157481
11
4.1198423622047242
21
-3.345556535433071
0
LINE
8
BLACK
6
CONTINUOUS
10
4.1198423622047242
20
-3.345556535433071
11
4.1291476377952758
21
-3.344082716535433
0
LINE
8
BLACK
6
CONTINUOUS
10
4.1291476377952758
20
-3.344082716535433
11
4.1385688976377955
21
-3.344082716535433
0
LINE
8
BLACK
6
CONTINUOUS
10
4.1385688976377955
20
-3.344082716535433
11
4.1478741732283462
21
-3.345556535433071
0
LINE
8
BLACK
6
CONTINUOUS
10
4.0757874015748028
20
-3.4085072834645667
11
4.0772172834645666
21
-3.41753531496063
0
LINE
8
BLACK
6
CONTINUOUS
10
4.0772172834645666
20
-3.41753531496063
11
4.0800418897637796
21
-3.426228464566929
0
LINE
8
BLACK
6
CONTINUOUS
10
4.0800418897637796
20
-3.426228464566929
11
4.0841916141732284
21
-3.4343727559055117
0
LINE
8
BLACK
6
CONTINUOUS
10
4.0841916141732284
20
-3.4343727559055117
11
4.0895642913385828
21
-3.4417676377952757
0
LINE
8
BLACK
6
CONTINUOUS
10
4.0895642913385828
20
-3.4417676377952757
11
4.0960276377952756
21
-3.4482309842519685
0
LINE
8
BLACK
6
CONTINUOUS
10
4.0960276377952756
20
-3.4482309842519685
11
4.1034225196850391
21
-3.4536036614173229
0
LINE
8
BLACK
6
CONTINUOUS
10
4.1034225196850391
20
-3.4536036614173229
11
4.1115668110236223
21
-3.4577533858267717
0
LINE
8
BLACK
6
CONTINUOUS
10
4.1115668110236223
20
-3.4577533858267717
11
4.1202599606299213
21
-3.4605779921259843
0
LINE
8
BLACK
6
CONTINUOUS
10
4.1202599606299213
20
-3.4605779921259843
11
4.1292879921259837
21
-3.4620078740157481
0
LINE
8
BLACK
6
CONTINUOUS
10
4.1292879921259837
20
-3.4620078740157481
11
4.1384285433070866
21
-3.4620078740157481
0
LINE
8
BLACK
6
CONTINUOUS
10
4.1384285433070866
20
-3.4620078740157481
11
4.1474565748031491
21
-3.4605779921259843
0
LINE
8
BLACK
6
CONTINUOUS
10
4.1474565748031491
20
-3.4605779921259843
11
4.156149724409449
21
-3.4577533858267717
0
LINE
8
BLACK
6
CONTINUOUS
10
4.156149724409449
20
-3.4577533858267717
11
4.1642940157480313
21
-3.4536036614173229
0
LINE
8
BLACK
6
CONTINUOUS
10
4.1642940157480313
20
-3.4536036614173229
11
4.1716888976377948
21
-3.4482309842519685
0
LINE
8
BLACK
6
CONTINUOUS
10
4.1716888976377948
20
-3.4482309842519685
11
4.1781522440944885
21
-3.4417676377952757
0
LINE
8
BLACK
6
CONTINUOUS
10
4.1781522440944885
20
-3.4417676377952757
11
4.183524921259842
21
-3.4343727559055117
0
LINE
8
BLACK
6
CONTINUOUS
10
4.183524921259842
20
-3.4343727559055117
11
4.1876746456692908
21
-3.426228464566929
0
LINE
8
BLACK
6
CONTINUOUS
10
4.1876746456692908
20
-3.426228464566929
11
4.1904992519685038
21
-3.41753531496063
0
LINE
8
BLACK
6
CONTINUOUS
10
4.1904992519685038
20
-3.41753531496063
11
4.1919291338582676
21
-3.4085072834645667
0
LINE
8
BLACK
6
CONTINUOUS
10
4.1919291338582676
20
-3.4085072834645667
11
4.1919291338582676
21
-3.3993667322834646
0
LINE
8
BLACK
6
CONTINUOUS
10
4.1919291338582676
20
-3.3993667322834646
11
4.1904992519685038
21
-3.3903387007874013
0
LINE
8
BLACK
6
CONTINUOUS
10
4.1904992519685038
20
-3.3903387007874013
11
4.1876746456692908
21
-3.3816455511811023
0
LINE
8
BLACK
6
CONTINUOUS
10
4.1876746456692908
20
-3.3816455511811023
11
4.183524921259842
21
-3.3735012598425196
0
LINE
8
BLACK
6
CONTINUOUS
10
4.183524921259842
20
-3.3735012598425196
11
4.1781522440944885
21
-3.366106377952756
0
LINE
8
BLACK
6
CONTINUOUS
10
4.1781522440944885
20
-3.366106377952756
11
4.1716888976377948
21
-3.3596430314960628
0
LINE
8
BLACK
6
CONTINUOUS
10
4.1716888976377948
20
-3.3596430314960628
11
4.1642940157480313
21
-3.3542703543307084
0
LINE
8
BLACK
6
CONTINUOUS
10
4.1642940157480313
20
-3.3542703543307084
11
4.156149724409449
21
-3.3501206299212596
0
LINE
8
BLACK
6
CONTINUOUS
10
4.156149724409449
20
-3.3501206299212596
11
4.1474565748031491
21
-3.347296023622047
0
LINE
8
BLACK
6
CONTINUOUS
10
4.1474565748031491
20
-3.347296023622047
11
4.1384285433070866
21
-3.3458661417322832
0
LINE
8
BLACK
6
CONTINUOUS
10
4.1384285433070866
20
-3.3458661417322832
11
4.1292879921259837
21
-3.3458661417322832
0
LINE
8
BLACK
6
CONTINUOUS
10
4.1292879921259837
20
-3.3458661417322832
11
4.1202599606299213
21
-3.347296023622047
0
LINE
8
BLACK
6
CONTINUOUS
10
4.1202599606299213
20
-3.347296023622047
11
4.1115668110236223
21
-3.3501206299212596
0
LINE
8
BLACK
6
CONTINUOUS
10
4.1115668110236223
20
-3.3501206299212596
11
4.1034225196850391
21
-3.3542703543307084
0
LINE
8
BLACK
6
CONTINUOUS
10
4.1034225196850391
20
-3.3542703543307084
11
4.0960276377952756
21
-3.3596430314960628
0
LINE
8
BLACK
6
CONTINUOUS
10
4.0960276377952756
20
-3.3596430314960628
11
4.0895642913385828
21
-3.366106377952756
0
LINE
8
BLACK
6
CONTINUOUS
10
4.0895642913385828
20
-3.366106377952756
11
4.0841916141732284
21
-3.3735012598425196
0
LINE
8
BLACK
6
CONTINUOUS
10
4.0841916141732284
20
-3.3735012598425196
11
4.0800418897637796
21
-3.3816455511811023
0
LINE
8
BLACK
6
CONTINUOUS
10
4.0800418897637796
20
-3.3816455511811023
11
4.0772172834645666
21
-3.3903387007874013
0
LINE
8
BLACK
6
CONTINUOUS
10
4.0772172834645666
20
-3.3903387007874013
11
4.0757874015748028
21
-3.3993667322834646
0
LINE
8
BLACK
6
CONTINUOUS
10
4.0757874015748028
20
-3.3993667322834646
11
4.0757874015748028
21
-3.4085072834645667
0
LINE
8
BLACK
6
CONTINUOUS
10
7.8014174803149601
20
-3.345556535433071
11
7.8103776377952752
21
-3.3484678740157481
0
LINE
8
BLACK
6
CONTINUOUS
10
7.8103776377952752
20
-3.3484678740157481
11
7.818772047244094
21
-3.3527450393700788
0
LINE
8
BLACK
6
CONTINUOUS
10
7.818772047244094
20
-3.3527450393700788
11
7.826394015748031
21
-3.3582827165354332
0
LINE
8
BLACK
6
CONTINUOUS
10
7.826394015748031
20
-3.3582827165354332
11
7.8330558661417324
21
-3.3649445669291338
0
LINE
8
BLACK
6
CONTINUOUS
10
7.8330558661417324
20
-3.3649445669291338
11
7.8385935433070868
21
-3.3725665354330707
0
LINE
8
BLACK
6
CONTINUOUS
10
7.8385935433070868
20
-3.3725665354330707
11
7.8428707086614171
21
-3.3809609448818896
0
LINE
8
BLACK
6
CONTINUOUS
10
7.8428707086614171
20
-3.3809609448818896
11
7.8457820472440947
21
-3.3899211023622047
0
LINE
8
BLACK
6
CONTINUOUS
10
7.8457820472440947
20
-3.3899211023622047
11
7.8472558661417322
21
-3.3992263779527558
0
LINE
8
BLACK
6
CONTINUOUS
10
7.8472558661417322
20
-3.3992263779527558
11
7.8472558661417322
21
-3.4086476377952755
0
LINE
8
BLACK
6
CONTINUOUS
10
7.8472558661417322
20
-3.4086476377952755
11
7.8457820472440947
21
-3.4179529133858266
0
LINE
8
BLACK
6
CONTINUOUS
10
7.8457820472440947
20
-3.4179529133858266
11
7.8428707086614171
21
-3.4269130708661417
0
LINE
8
BLACK
6
CONTINUOUS
10
7.8428707086614171
20
-3.4269130708661417
11
7.8385935433070868
21
-3.4353074803149606
0
LINE
8
BLACK
6
CONTINUOUS
10
7.8385935433070868
20
-3.4353074803149606
11
7.8330558661417324
21
-3.4429294488188975
0
LINE
8
BLACK
6
CONTINUOUS
10
7.8330558661417324
20
-3.4429294488188975
11
7.826394015748031
21
-3.4495912992125985
0
LINE
8
BLACK
6
CONTINUOUS
10
7.826394015748031
20
-3.4495912992125985
11
7.818772047244094
21
-3.4551289763779525
0
LINE
8
BLACK
6
CONTINUOUS
10
7.818772047244094
20
-3.4551289763779525
11
7.8103776377952752
21
-3.4594061417322832
0
LINE
8
BLACK
6
CONTINUOUS
10
7.8103776377952752
20
-3.4594061417322832
11
7.8014174803149601
21
-3.4623174803149603
0
LINE
8
BLACK
6
CONTINUOUS
10
7.8014174803149601
20
-3.4623174803149603
11
7.7921122047244094
21
-3.4637912992125983
0
LINE
8
BLACK
6
CONTINUOUS
10
7.7921122047244094
20
-3.4637912992125983
11
7.7826909448818897
21
-3.4637912992125983
0
LINE
8
BLACK
6
CONTINUOUS
10
7.7826909448818897
20
-3.4637912992125983
11
7.7733856692913381
21
-3.4623174803149603
0
LINE
8
BLACK
6
CONTINUOUS
10
7.7733856692913381
20
-3.4623174803149603
11
7.764425511811023
21
-3.4594061417322832
0
LINE
8
BLACK
6
CONTINUOUS
10
7.764425511811023
20
-3.4594061417322832
11
7.7560311023622042
21
-3.4551289763779525
0
LINE
8
BLACK
6
CONTINUOUS
10
7.7560311023622042
20
-3.4551289763779525
11
7.7484091338582672
21
-3.4495912992125985
0
LINE
8
BLACK
6
CONTINUOUS
10
7.7484091338582672
20
-3.4495912992125985
11
7.7417472834645666
21
-3.4429294488188975
0
LINE
8
BLACK
6
CONTINUOUS
10
7.7417472834645666
20
-3.4429294488188975
11
7.7362096062992123
21
-3.4353074803149606
0
LINE
8
BLACK
6
CONTINUOUS
10
7.7362096062992123
20
-3.4353074803149606
11
7.731932440944882
21
-3.4269130708661417
0
LINE
8
BLACK
6
CONTINUOUS
10
7.731932440944882
20
-3.4269130708661417
11
7.7290211023622044
21
-3.4179529133858266
0
LINE
8
BLACK
6
CONTINUOUS
10
7.7290211023622044
20
-3.4179529133858266
11
7.7275472834645669
21
-3.4086476377952755
0
LINE
8
BLACK
6
CONTINUOUS
10
7.7275472834645669
20
-3.4086476377952755
11
7.7275472834645669
21
-3.3993667322834646
0
LINE
8
BLACK
6
CONTINUOUS
10
7.7275472834645669
20
-3.3993667322834646
11
7.7275472834645669
21
-3.3992263779527558
0
LINE
8
BLACK
6
CONTINUOUS
10
7.7275472834645669
20
-3.3992263779527558
11
7.7290211023622044
21
-3.3899211023622047
0
LINE
8
BLACK
6
CONTINUOUS
10
7.7290211023622044
20
-3.3899211023622047
11
7.731932440944882
21
-3.3809609448818896
0
LINE
8
BLACK
6
CONTINUOUS
10
7.731932440944882
20
-3.3809609448818896
11
7.7362096062992123
21
-3.3725665354330707
0
LINE
8
BLACK
6
CONTINUOUS
10
7.7362096062992123
20
-3.3725665354330707
11
7.7417472834645666
21
-3.3649445669291338
0
LINE
8
BLACK
6
CONTINUOUS
10
7.7417472834645666
20
-3.3649445669291338
11
7.7484091338582672
21
-3.3582827165354332
0
LINE
8
BLACK
6
CONTINUOUS
10
7.7484091338582672
20
-3.3582827165354332
11
7.7560311023622042
21
-3.3527450393700788
0
LINE
8
BLACK
6
CONTINUOUS
10
7.7560311023622042
20
-3.3527450393700788
11
7.764425511811023
21
-3.3484678740157481
0
LINE
8
BLACK
6
CONTINUOUS
10
7.764425511811023
20
-3.3484678740157481
11
7.7733856692913381
21
-3.345556535433071
0
LINE
8
BLACK
6
CONTINUOUS
10
7.7733856692913381
20
-3.345556535433071
11
7.7826909448818897
21
-3.344082716535433
0
LINE
8
BLACK
6
CONTINUOUS
10
7.7826909448818897
20
-3.344082716535433
11
7.7921122047244094
21
-3.344082716535433
0
LINE
8
BLACK
6
CONTINUOUS
10
7.7921122047244094
20
-3.344082716535433
11
7.8014174803149601
21
-3.345556535433071
0
LINE
8
BLACK
6
CONTINUOUS
10
7.7293307086614176
20
-3.4085072834645667
11
7.7307605905511814
21
-3.41753531496063
0
LINE
8
BLACK
6
CONTINUOUS
10
7.7307605905511814
20
-3.41753531496063
11
7.7335851968503935
21
-3.426228464566929
0
LINE
8
BLACK
6
CONTINUOUS
10
7.7335851968503935
20
-3.426228464566929
11
7.7377349212598423
21
-3.4343727559055117
0
LINE
8
BLACK
6
CONTINUOUS
10
7.7377349212598423
20
-3.4343727559055117
11
7.7431075984251967
21
-3.4417676377952757
0
LINE
8
BLACK
6
CONTINUOUS
10
7.7431075984251967
20
-3.4417676377952757
11
7.7495709448818895
21
-3.4482309842519685
0
LINE
8
BLACK
6
CONTINUOUS
10
7.7495709448818895
20
-3.4482309842519685
11
7.756965826771653
21
-3.4536036614173229
0
LINE
8
BLACK
6
CONTINUOUS
10
7.756965826771653
20
-3.4536036614173229
11
7.7651101181102362
21
-3.4577533858267717
0
LINE
8
BLACK
6
CONTINUOUS
10
7.7651101181102362
20
-3.4577533858267717
11
7.7738032677165352
21
-3.4605779921259843
0
LINE
8
BLACK
6
CONTINUOUS
10
7.7738032677165352
20
-3.4605779921259843
11
7.7828312992125985
21
-3.4620078740157481
0
LINE
8
BLACK
6
CONTINUOUS
10
7.7828312992125985
20
-3.4620078740157481
11
7.7919718503937005
21
-3.4620078740157481
0
LINE
8
BLACK
6
CONTINUOUS
10
7.7919718503937005
20
-3.4620078740157481
11
7.8009998818897639
21
-3.4605779921259843
0
LINE
8
BLACK
6
CONTINUOUS
10
7.8009998818897639
20
-3.4605779921259843
11
7.8096930314960629
21
-3.4577533858267717
0
LINE
8
BLACK
6
CONTINUOUS
10
7.8096930314960629
20
-3.4577533858267717
11
7.8178373228346452
21
-3.4536036614173229
0
LINE
8
BLACK
6
CONTINUOUS
10
7.8178373228346452
20
-3.4536036614173229
11
7.8252322047244096
21
-3.4482309842519685
0
LINE
8
BLACK
6
CONTINUOUS
10
7.8252322047244096
20
-3.4482309842519685
11
7.8316955511811024
21
-3.4417676377952757
0
LINE
8
BLACK
6
CONTINUOUS
10
7.8316955511811024
20
-3.4417676377952757
11
7.8370682283464568
21
-3.4343727559055117
0
LINE
8
BLACK
6
CONTINUOUS
10
7.8370682283464568
20
-3.4343727559055117
11
7.8412179527559056
21
-3.426228464566929
0
LINE
8
BLACK
6
CONTINUOUS
10
7.8412179527559056
20
-3.426228464566929
11
7.8440425590551177
21
-3.41753531496063
0
LINE
8
BLACK
6
CONTINUOUS
10
7.8440425590551177
20
-3.41753531496063
11
7.8454724409448815
21
-3.4085072834645667
0
LINE
8
BLACK
6
CONTINUOUS
10
7.8454724409448815
20
-3.4085072834645667
11
7.8454724409448815
21
-3.3993667322834646
0
LINE
8
BLACK
6
CONTINUOUS
10
7.8454724409448815
20
-3.3993667322834646
11
7.8440425590551177
21
-3.3903387007874013
0
LINE
8
BLACK
6
CONTINUOUS
10
7.8440425590551177
20
-3.3903387007874013
11
7.8412179527559056
21
-3.3816455511811023
0
LINE
8
BLACK
6
CONTINUOUS
10
7.8412179527559056
20
-3.3816455511811023
11
7.8370682283464568
21
-3.3735012598425196
0
LINE
8
BLACK
6
CONTINUOUS
10
7.8370682283464568
20
-3.3735012598425196
11
7.8316955511811024
21
-3.366106377952756
0
LINE
8
BLACK
6
CONTINUOUS
10
7.8316955511811024
20
-3.366106377952756
11
7.8252322047244096
21
-3.3596430314960628
0
LINE
8
BLACK
6
CONTINUOUS
10
7.8252322047244096
20
-3.3596430314960628
11
7.8178373228346452
21
-3.3542703543307084
0
LINE
8
BLACK
6
CONTINUOUS
10
7.8178373228346452
20
-3.3542703543307084
11
7.8096930314960629
21
-3.3501206299212596
0
LINE
8
BLACK
6
CONTINUOUS
10
7.8096930314960629
20
-3.3501206299212596
11
7.8009998818897639
21
-3.347296023622047
0
LINE
8
BLACK
6
CONTINUOUS
10
7.8009998818897639
20
-3.347296023622047
11
7.7919718503937005
21
-3.3458661417322832
0
LINE
8
BLACK
6
CONTINUOUS
10
7.7919718503937005
20
-3.3458661417322832
11
7.7828312992125985
21
-3.3458661417322832
0
LINE
8
BLACK
6
CONTINUOUS
10
7.7828312992125985
20
-3.3458661417322832
11
7.7738032677165352
21
-3.347296023622047
0
LINE
8
BLACK
6
CONTINUOUS
10
7.7738032677165352
20
-3.347296023622047
11
7.7651101181102362
21
-3.3501206299212596
0
LINE
8
BLACK
6
CONTINUOUS
10
7.7651101181102362
20
-3.3501206299212596
11
7.756965826771653
21
-3.3542703543307084
0
LINE
8
BLACK
6
CONTINUOUS
10
7.756965826771653
20
-3.3542703543307084
11
7.7495709448818895
21
-3.3596430314960628
0
LINE
8
BLACK
6
CONTINUOUS
10
7.7495709448818895
20
-3.3596430314960628
11
7.7431075984251967
21
-3.366106377952756
0
LINE
8
BLACK
6
CONTINUOUS
10
7.7431075984251967
20
-3.366106377952756
11
7.7377349212598423
21
-3.3735012598425196
0
LINE
8
BLACK
6
CONTINUOUS
10
7.7377349212598423
20
-3.3735012598425196
11
7.7335851968503935
21
-3.3816455511811023
0
LINE
8
BLACK
6
CONTINUOUS
10
7.7335851968503935
20
-3.3816455511811023
11
7.7307605905511814
21
-3.3903387007874013
0
LINE
8
BLACK
6
CONTINUOUS
10
7.7307605905511814
20
-3.3903387007874013
11
7.7293307086614176
21
-3.3993667322834646
0
LINE
8
BLACK
6
CONTINUOUS
10
7.7293307086614176
20
-3.3993667322834646
11
7.7293307086614176
21
-3.4085072834645667
0
LINE
8
BLACK
6
CONTINUOUS
10
7.9846286220472438
20
-2.4872796456692914
11
7.9851612992125984
21
-2.4878123228346456
0
LINE
8
BLACK
6
CONTINUOUS
10
7.9851612992125984
20
-2.4878123228346456
11
7.9852362204724407
21
-2.4881889763779528
0
LINE
8
BLACK
6
CONTINUOUS
10
7.9852362204724407
20
-2.4881889763779528
11
7.9852362204724407
21
-5.9055118110236222
0
LINE
8
BLACK
6
CONTINUOUS
10
7.9852362204724407
20
-5.9055118110236222
11
7.9851612992125984
21
-5.905888464566929
0
LINE
8
BLACK
6
CONTINUOUS
10
7.9851612992125984
20
-5.905888464566929
11
7.9846286220472438
21
-5.9064211417322836
0
LINE
8
BLACK
6
CONTINUOUS
10
7.9846286220472438
20
-5.9064211417322836
11
7.984251968503937
21
-5.9064960629921259
0
LINE
8
BLACK
6
CONTINUOUS
10
7.984251968503937
20
-5.9064960629921259
11
3.9370078740157481
21
-5.9064960629921259
0
LINE
8
BLACK
6
CONTINUOUS
10
3.9370078740157481
20
-5.9064960629921259
11
3.936631220472441
21
-5.9064211417322836
0
LINE
8
BLACK
6
CONTINUOUS
10
3.936631220472441
20
-5.9064211417322836
11
3.9360985433070863
21
-5.905888464566929
0
LINE
8
BLACK
6
CONTINUOUS
10
3.9360985433070863
20
-5.905888464566929
11
3.936023622047244
21
-5.9055118110236222
0
LINE
8
BLACK
6
CONTINUOUS
10
3.936023622047244
20
-5.9055118110236222
11
3.936023622047244
21
-2.4881889763779528
0
LINE
8
BLACK
6
CONTINUOUS
10
3.936023622047244
20
-2.4881889763779528
11
3.9360985433070863
21
-2.4878123228346456
0
LINE
8
BLACK
6
CONTINUOUS
10
3.9360985433070863
20
-2.4878123228346456
11
3.936631220472441
21
-2.4872796456692914
0
LINE
8
BLACK
6
CONTINUOUS
10
3.936631220472441
20
-2.4872796456692914
11
3.9370078740157481
21
-2.4872047244094486
0
LINE
8
BLACK
6
CONTINUOUS
10
3.9370078740157481
20
-2.4872047244094486
11
7.984251968503937
21
-2.4872047244094486
0
LINE
8
BLACK
6
CONTINUOUS
10
7.984251968503937
20
-2.4872047244094486
11
7.9846286220472438
21
-2.4872796456692914
0
LINE
8
BLACK
6
CONTINUOUS
10
3.9379921259842519
20
-2.4891732283464565
11
3.9379921259842519
21
-5.9045275590551176
0
LINE
8
BLACK
6
CONTINUOUS
10
3.9379921259842519
20
-5.9045275590551176
11
7.9832677165354333
21
-5.9045275590551176
0
LINE
8
BLACK
6
CONTINUOUS
10
7.9832677165354333
20
-5.9045275590551176
11
7.9832677165354333
21
-2.4891732283464565
0
LINE
8
BLACK
6
CONTINUOUS
10
7.9832677165354333
20
-2.4891732283464565
11
3.9379921259842519
21
-2.4891732283464565
  0
ENDSEC
  0
EOF
