M48
; DRILL file {KiCad 9.0.0} date 2025-03-19T14:28:53+0500
; FORMAT={-:-/ absolute / inch / decimal}
; #@! TF.CreationDate,2025-03-19T14:28:53+05:00
; #@! TF.GenerationSoftware,Kicad,Pcbnew,9.0.0
; #@! TF.FileFunction,Plated,1,2,PTH
FMAT,2
INCH
; #@! TA.AperFunction,Plated,PTH,ViaDrill
T1C0.0118
; #@! TA.AperFunction,Plated,PTH,ComponentDrill
T2C0.0394
; #@! TA.AperFunction,Plated,PTH,ComponentDrill
T3C0.0472
; #@! TA.AperFunction,Plated,PTH,ComponentDrill
T4C0.0669
%
G90
G05
T1
X4.0743Y-2.5737
X4.0743Y-2.6737
X4.0743Y-2.7737
X4.0743Y-2.8737
X4.0743Y-2.9737
X4.0743Y-3.0737
X4.0743Y-3.1737
X4.0743Y-3.5737
X4.0743Y-3.6737
X4.0743Y-3.7737
X4.0743Y-3.8737
X4.0743Y-3.9737
X4.0743Y-4.0737
X4.0743Y-4.1737
X4.0743Y-4.2737
X4.0743Y-4.3737
X4.0743Y-4.4737
X4.0743Y-4.5737
X4.0743Y-4.6737
X4.0743Y-5.0737
X4.0743Y-5.1737
X4.0743Y-5.2737
X4.0743Y-5.3737
X4.0743Y-5.4737
X4.0743Y-5.5737
X4.0743Y-5.6737
X4.0743Y-5.7737
X4.1743Y-2.5737
X4.1743Y-2.8737
X4.1743Y-2.9737
X4.1743Y-3.0737
X4.1743Y-3.1737
X4.1743Y-3.5737
X4.1743Y-4.5737
X4.1743Y-4.6737
X4.1743Y-5.0737
X4.1743Y-5.1737
X4.1743Y-5.2737
X4.1743Y-5.3737
X4.1743Y-5.4737
X4.1743Y-5.7737
X4.1929Y-3.7008
X4.1929Y-3.7598
X4.1929Y-3.8189
X4.1929Y-3.878
X4.1929Y-3.937
X4.1929Y-3.9961
X4.1929Y-4.0551
X4.2362Y-3.685
X4.2743Y-2.5737
X4.2743Y-2.6737
X4.2743Y-2.7737
X4.2743Y-2.8737
X4.2743Y-2.9737
X4.2743Y-3.0737
X4.2743Y-3.1737
X4.2743Y-3.2737
X4.2743Y-3.7737
X4.2743Y-4.6737
X4.2743Y-4.7737
X4.2743Y-4.8737
X4.2743Y-4.9737
X4.2743Y-5.0737
X4.2743Y-5.1737
X4.2743Y-5.2737
X4.2743Y-5.3737
X4.2743Y-5.5737
X4.2743Y-5.6737
X4.2743Y-5.7737
X4.2752Y-4.0559
X4.3185Y-3.4605
X4.3197Y-3.5035
X4.3398Y-4.0487
X4.3559Y-3.374
X4.372Y-3.4961
X4.3743Y-2.5737
X4.3743Y-2.8737
X4.3743Y-2.9737
X4.3743Y-3.1737
X4.3743Y-5.5737
X4.3743Y-5.7737
X4.3866Y-4.0479
X4.3941Y-3.3969
X4.3965Y-3.6263
X4.4043Y-3.7377
X4.4315Y-3.3169
X4.4362Y-3.2504
X4.4398Y-3.5066
X4.4476Y-3.8625
X4.4496Y-4.1508
X4.4743Y-2.5737
X4.4743Y-2.6737
X4.4743Y-2.7737
X4.4743Y-2.8737
X4.4743Y-2.9737
X4.4743Y-3.0737
X4.4743Y-4.2737
X4.4743Y-4.3737
X4.4743Y-4.4737
X4.4743Y-5.3737
X4.4743Y-5.4737
X4.4743Y-5.5737
X4.4743Y-5.6737
X4.4743Y-5.7737
X4.4831Y-3.5031
X4.5602Y-3.8231
X4.5743Y-2.5737
X4.5743Y-2.8737
X4.5743Y-3.0737
X4.5743Y-3.1737
X4.5743Y-3.5737
X4.5743Y-3.9737
X4.5743Y-4.1737
X4.5743Y-5.5737
X4.5743Y-5.7737
X4.5772Y-4.046
X4.5902Y-3.5149
X4.5992Y-3.8086
X4.6031Y-3.7617
X4.6319Y-3.8413
X4.6335Y-3.952
X4.6705Y-3.6744
X4.6743Y-2.5737
X4.6743Y-2.8737
X4.6743Y-2.9737
X4.6743Y-3.1737
X4.6743Y-3.2737
X4.6743Y-3.3737
X4.6743Y-3.4737
X4.6743Y-3.5737
X4.6743Y-4.2737
X4.6743Y-4.3737
X4.6743Y-4.4737
X4.6743Y-5.4737
X4.6743Y-5.7737
X4.6957Y-3.8327
X4.7165Y-5.0787
X4.7165Y-5.1102
X4.724Y-3.4605
X4.724Y-4.0535
X4.7402Y-5.1339
X4.7488Y-5.0787
X4.7677Y-4.0487
X4.7743Y-2.5737
X4.7743Y-2.8737
X4.7743Y-2.9737
X4.7743Y-3.0737
X4.7743Y-3.1737
X4.7743Y-4.8737
X4.7743Y-5.4737
X4.7743Y-5.5737
X4.7743Y-5.7737
X4.7843Y-3.3665
X4.7988Y-3.5109
X4.8145Y-4.0479
X4.8224Y-3.4003
X4.8244Y-3.6263
X4.8322Y-3.7377
X4.8646Y-3.2488
X4.8677Y-3.5066
X4.8743Y-2.5737
X4.8743Y-2.8737
X4.8743Y-2.9737
X4.8743Y-3.0737
X4.8743Y-3.1737
X4.8743Y-4.0737
X4.8743Y-4.2737
X4.8743Y-4.3737
X4.8743Y-4.8737
X4.8743Y-5.5737
X4.8743Y-5.7737
X4.8755Y-3.8625
X4.8775Y-4.1508
X4.9004Y-3.7398
X4.9063Y-3.648
X4.911Y-3.5031
X4.9743Y-2.5737
X4.9743Y-2.7737
X4.9743Y-2.8737
X4.9743Y-3.0737
X4.9743Y-3.1737
X4.9743Y-3.6737
X4.9743Y-3.9737
X4.9743Y-4.8737
X4.9743Y-5.1737
X4.9743Y-5.5737
X4.9743Y-5.7737
X4.9881Y-3.8231
X5.002Y-3.6075
X5.0051Y-4.046
X5.0181Y-3.5149
X5.0271Y-3.8086
X5.031Y-3.7617
X5.0559Y-3.8417
X5.0606Y-3.9366
X5.0705Y-3.3886
X5.0743Y-2.5737
X5.0743Y-2.8737
X5.0743Y-2.9737
X5.0743Y-3.1737
X5.0743Y-3.2737
X5.0743Y-3.4737
X5.0743Y-3.5737
X5.0743Y-4.2737
X5.0743Y-4.3737
X5.0743Y-4.4737
X5.0743Y-5.0737
X5.0743Y-5.1737
X5.0743Y-5.2737
X5.0743Y-5.7737
X5.1043Y-3.6634
X5.1303Y-3.8315
X5.1346Y-4.0528
X5.1519Y-3.4605
X5.1555Y-3.5886
X5.1743Y-2.5737
X5.1743Y-2.7737
X5.1743Y-2.8737
X5.1743Y-3.0737
X5.1743Y-5.2737
X5.1743Y-5.5737
X5.1743Y-5.7737
X5.1744Y-3.5035
X5.1956Y-4.0487
X5.215Y-3.3039
X5.2267Y-3.5109
X5.2424Y-4.0479
X5.2503Y-3.4003
X5.2522Y-3.6263
X5.2601Y-3.7377
X5.2743Y-2.5737
X5.2743Y-2.8737
X5.2743Y-2.9737
X5.2743Y-3.1737
X5.2743Y-4.2737
X5.2743Y-4.8737
X5.2743Y-5.2737
X5.2743Y-5.5737
X5.2743Y-5.7737
X5.2756Y-5.1969
X5.2937Y-3.2484
X5.2956Y-3.5066
X5.2969Y-4.0346
X5.3034Y-3.8625
X5.3054Y-4.1508
X5.3389Y-3.5031
X5.3449Y-3.9252
X5.3705Y-5.272
X5.3724Y-5.2091
X5.3743Y-2.5737
X5.3743Y-2.6737
X5.3743Y-2.7737
X5.3743Y-2.8737
X5.3743Y-3.0737
X5.3743Y-3.1737
X5.3743Y-3.6737
X5.3743Y-4.4737
X5.3743Y-5.5737
X5.3743Y-5.6737
X5.3743Y-5.7737
X5.3902Y-3.3142
X5.416Y-3.8231
X5.433Y-4.046
X5.4331Y-5.2953
X5.446Y-3.5149
X5.455Y-3.8086
X5.4589Y-3.7617
X5.4743Y-2.5737
X5.4743Y-2.8737
X5.4743Y-2.9737
X5.4743Y-3.1737
X5.4743Y-3.2737
X5.4743Y-3.5737
X5.4743Y-4.4737
X5.4743Y-4.5737
X5.4743Y-4.7737
X5.4743Y-5.4737
X5.4743Y-5.7737
X5.4882Y-3.837
X5.4921Y-5.0689
X5.5004Y-3.9461
X5.5217Y-5.128
X5.5217Y-5.1969
X5.5315Y-5.0591
X5.5315Y-5.2854
X5.5323Y-3.6803
X5.5488Y-3.4024
X5.5743Y-2.5737
X5.5743Y-2.6737
X5.5743Y-2.7737
X5.5743Y-2.8737
X5.5743Y-3.0737
X5.5743Y-3.5737
X5.5743Y-3.7737
X5.5743Y-4.5737
X5.5743Y-4.7737
X5.5743Y-4.8737
X5.5743Y-5.4737
X5.5743Y-5.5737
X5.5743Y-5.6737
X5.5743Y-5.7737
X5.5798Y-3.4605
X5.5815Y-4.0591
X5.5906Y-5.0472
X5.5984Y-5.2677
X5.6043Y-3.502
X5.622Y-5.0472
X5.6235Y-4.0487
X5.6299Y-5.2677
X5.6398Y-3.385
X5.6535Y-5.0472
X5.6546Y-3.5109
X5.6614Y-5.2677
X5.6703Y-4.0479
X5.6743Y-2.5737
X5.6743Y-2.8737
X5.6743Y-2.9737
X5.6743Y-3.1737
X5.6743Y-4.1737
X5.6743Y-4.7737
X5.6743Y-5.4737
X5.6743Y-5.5737
X5.6743Y-5.7737
X5.6782Y-3.4003
X5.6801Y-3.6263
X5.6843Y-3.6902
X5.685Y-5.0472
X5.688Y-3.7377
X5.6929Y-5.2677
X5.7157Y-3.3177
X5.7165Y-3.2461
X5.7165Y-5.0472
X5.7235Y-3.5066
X5.7313Y-3.8625
X5.7323Y-5.2677
X5.7333Y-4.1508
X5.748Y-5.0472
X5.7668Y-3.5031
X5.7717Y-5.2677
X5.7743Y-2.5737
X5.7743Y-2.6737
X5.7743Y-2.7737
X5.7743Y-2.8737
X5.7743Y-2.9737
X5.7743Y-3.0737
X5.7743Y-4.2737
X5.7743Y-4.3737
X5.7743Y-4.6737
X5.7743Y-4.7737
X5.7743Y-5.4737
X5.7743Y-5.5737
X5.7743Y-5.6737
X5.7743Y-5.7737
X5.7744Y-3.9224
X5.8439Y-3.8231
X5.848Y-4.1476
X5.8609Y-4.046
X5.8738Y-3.5149
X5.8743Y-2.5737
X5.8743Y-2.6737
X5.8743Y-2.7737
X5.8743Y-2.8737
X5.8743Y-2.9737
X5.8743Y-3.0737
X5.8743Y-3.1737
X5.8743Y-3.5737
X5.8743Y-5.4737
X5.8743Y-5.5737
X5.8743Y-5.6737
X5.8743Y-5.7737
X5.8829Y-3.8086
X5.8868Y-3.7617
X5.9236Y-3.9449
X5.9252Y-3.8189
X5.937Y-5.063
X5.9559Y-3.672
X5.9685Y-5.0709
X5.9743Y-2.5737
X5.9743Y-2.6737
X5.9743Y-2.7737
X5.9743Y-2.8737
X5.9743Y-2.9737
X5.9743Y-3.0737
X5.9743Y-3.1737
X5.9743Y-3.2737
X5.9743Y-4.4737
X5.9743Y-4.5737
X5.9743Y-5.3737
X5.9743Y-5.4737
X5.9743Y-5.5737
X5.9743Y-5.6737
X5.9743Y-5.7737
X5.9921Y-5.0945
X6.0039Y-3.7992
X6.0076Y-3.4605
X6.0094Y-4.0362
X6.0157Y-5.1181
X6.0513Y-4.0487
X6.0743Y-2.5737
X6.0743Y-2.6737
X6.0743Y-2.7737
X6.0743Y-2.8737
X6.0743Y-2.9737
X6.0743Y-3.1737
X6.0743Y-3.2737
X6.0743Y-5.0737
X6.0743Y-5.1737
X6.0743Y-5.2737
X6.0743Y-5.3737
X6.0743Y-5.4737
X6.0743Y-5.5737
X6.0743Y-5.6737
X6.0743Y-5.7737
X6.0825Y-3.5109
X6.0982Y-4.0479
X6.1061Y-3.4003
X6.108Y-3.6263
X6.1159Y-3.7377
X6.1445Y-3.2453
X6.1492Y-3.3154
X6.1513Y-3.5066
X6.1592Y-3.8625
X6.1612Y-4.1508
X6.1743Y-2.5737
X6.1743Y-3.0737
X6.1743Y-3.1737
X6.1743Y-4.2737
X6.1743Y-4.3737
X6.1743Y-5.7737
X6.1947Y-3.5031
X6.2598Y-3.9433
X6.2718Y-3.8231
X6.2743Y-2.5737
X6.2743Y-2.6737
X6.2743Y-2.7737
X6.2743Y-2.9737
X6.2743Y-3.1737
X6.2743Y-3.6737
X6.2743Y-5.2737
X6.2743Y-5.3737
X6.2743Y-5.4737
X6.2743Y-5.5737
X6.2743Y-5.6737
X6.2743Y-5.7737
X6.2888Y-4.046
X6.3017Y-3.5149
X6.3108Y-3.8086
X6.3147Y-3.7617
X6.3409Y-3.9409
X6.3743Y-2.5737
X6.3743Y-2.8737
X6.3743Y-3.0737
X6.3743Y-3.2737
X6.3743Y-4.2737
X6.3743Y-4.3737
X6.3743Y-4.4737
X6.3743Y-4.6737
X6.3743Y-5.0737
X6.3743Y-5.2737
X6.3743Y-5.3737
X6.3743Y-5.4737
X6.3743Y-5.7737
X6.3858Y-3.6681
X6.4213Y-4.048
X6.4272Y-3.8291
X6.4355Y-3.4605
X6.4743Y-2.5737
X6.4743Y-2.6737
X6.4743Y-2.7737
X6.4743Y-2.9737
X6.4743Y-3.0737
X6.4743Y-4.6737
X6.4743Y-4.7737
X6.4743Y-4.8737
X6.4743Y-5.0737
X6.4743Y-5.2737
X6.4743Y-5.3737
X6.4743Y-5.5737
X6.4743Y-5.6737
X6.4743Y-5.7737
X6.4792Y-4.0487
X6.4976Y-3.3157
X6.5103Y-3.5109
X6.5261Y-4.0479
X6.534Y-3.4003
X6.5359Y-3.6263
X6.5438Y-3.7377
X6.5713Y-3.2453
X6.5743Y-2.5737
X6.5743Y-2.8737
X6.5743Y-2.9737
X6.5743Y-4.2737
X6.5743Y-4.7737
X6.5743Y-4.8737
X6.5743Y-5.0737
X6.5743Y-5.2737
X6.5743Y-5.3737
X6.5743Y-5.7737
X6.5792Y-3.5066
X6.5871Y-3.8625
X6.5891Y-4.1508
X6.6226Y-3.5031
X6.6659Y-3.931
X6.6743Y-2.5737
X6.6743Y-2.6737
X6.6743Y-2.7737
X6.6743Y-2.8737
X6.6743Y-3.0737
X6.6743Y-3.2737
X6.6743Y-3.6737
X6.6743Y-4.4737
X6.6743Y-4.7737
X6.6743Y-5.0737
X6.6743Y-5.1737
X6.6743Y-5.2737
X6.6743Y-5.3737
X6.6743Y-5.5737
X6.6743Y-5.6737
X6.6743Y-5.7737
X6.6997Y-3.8231
X6.7146Y-3.8524
X6.7166Y-4.046
X6.7296Y-3.5149
X6.7387Y-3.8086
X6.7426Y-3.7617
X6.7743Y-2.5737
X6.7743Y-2.9737
X6.7743Y-3.2737
X6.7743Y-3.5737
X6.7743Y-3.9737
X6.7743Y-4.2737
X6.7743Y-4.3737
X6.7743Y-4.4737
X6.7743Y-4.7737
X6.7743Y-4.8737
X6.7743Y-5.0737
X6.7743Y-5.1737
X6.7743Y-5.2737
X6.7743Y-5.3737
X6.7743Y-5.7737
X6.7756Y-3.8378
X6.8087Y-3.6783
X6.8488Y-4.0555
X6.8634Y-3.4605
X6.8743Y-2.5737
X6.8743Y-2.6737
X6.8743Y-2.7737
X6.8743Y-2.8737
X6.8743Y-3.0737
X6.8743Y-3.5737
X6.8743Y-3.7737
X6.8743Y-4.7737
X6.8743Y-5.2737
X6.8743Y-5.3737
X6.8743Y-5.5737
X6.8743Y-5.6737
X6.8743Y-5.7737
X6.9071Y-4.0487
X6.9382Y-3.5109
X6.954Y-4.0479
X6.9619Y-3.4003
X6.9638Y-3.6263
X6.9717Y-3.7377
X6.9743Y-2.5737
X6.9743Y-2.9737
X6.9743Y-4.2737
X6.9743Y-5.2737
X6.9743Y-5.7737
X6.9957Y-3.3831
X7.0Y-3.2453
X7.0071Y-3.5066
X7.015Y-3.8625
X7.017Y-4.1508
X7.0504Y-3.5031
X7.0743Y-2.5737
X7.0743Y-2.6737
X7.0743Y-2.7737
X7.0743Y-2.8737
X7.0743Y-3.0737
X7.0743Y-3.6737
X7.0743Y-4.2737
X7.0743Y-4.4737
X7.0743Y-4.8737
X7.0743Y-4.9737
X7.0743Y-5.2737
X7.0743Y-5.5737
X7.0743Y-5.6737
X7.0743Y-5.7737
X7.113Y-3.9504
X7.1276Y-3.8231
X7.1445Y-4.046
X7.1575Y-3.5149
X7.1666Y-3.8086
X7.1705Y-3.7617
X7.1743Y-2.5737
X7.1743Y-2.9737
X7.1743Y-3.0737
X7.1743Y-3.5737
X7.1743Y-4.8737
X7.1743Y-4.9737
X7.1743Y-5.0737
X7.1743Y-5.2737
X7.1743Y-5.7737
X7.2059Y-3.8406
X7.2374Y-3.737
X7.2732Y-3.826
X7.2743Y-2.5737
X7.2743Y-2.6737
X7.2743Y-2.7737
X7.2743Y-2.8737
X7.2743Y-2.9737
X7.2743Y-3.0737
X7.2743Y-3.2737
X7.2743Y-3.3737
X7.2743Y-3.5737
X7.2743Y-4.8737
X7.2743Y-4.9737
X7.2743Y-5.0737
X7.2743Y-5.1737
X7.2743Y-5.2737
X7.2743Y-5.5737
X7.2743Y-5.6737
X7.2743Y-5.7737
X7.2776Y-4.0555
X7.2913Y-3.4605
X7.335Y-4.0487
X7.3528Y-3.3646
X7.3661Y-3.5109
X7.3713Y-3.2457
X7.3743Y-2.5737
X7.3743Y-2.8737
X7.3743Y-2.9737
X7.3743Y-4.1737
X7.3743Y-5.7737
X7.3819Y-4.0479
X7.3898Y-3.4003
X7.3917Y-3.6263
X7.3996Y-3.7377
X7.4079Y-3.9492
X7.4236Y-3.3744
X7.435Y-3.5066
X7.4429Y-3.8625
X7.4449Y-4.1508
X7.4732Y-3.6618
X7.4743Y-2.5737
X7.4743Y-2.6737
X7.4743Y-2.7737
X7.4743Y-2.8737
X7.4743Y-3.0737
X7.4743Y-4.2737
X7.4743Y-4.4737
X7.4743Y-5.5737
X7.4743Y-5.6737
X7.4743Y-5.7737
X7.4783Y-3.5031
X7.4878Y-3.9213
X7.5472Y-3.6858
X7.5555Y-3.8231
X7.5685Y-3.9524
X7.5724Y-4.046
X7.5743Y-2.5737
X7.5743Y-2.9737
X7.5743Y-3.1737
X7.5743Y-3.5737
X7.5743Y-4.5737
X7.5743Y-5.7737
X7.5854Y-3.5149
X7.5945Y-3.8086
X7.5984Y-3.7617
X7.6743Y-2.5737
X7.6743Y-2.6737
X7.6743Y-2.7737
X7.6743Y-2.8737
X7.6743Y-3.0737
X7.6743Y-3.1737
X7.6743Y-3.5737
X7.6743Y-3.6737
X7.6743Y-3.7737
X7.6743Y-3.8737
X7.6743Y-3.9737
X7.6743Y-4.0737
X7.6743Y-4.1737
X7.6743Y-4.2737
X7.6743Y-4.3737
X7.6743Y-4.4737
X7.6743Y-4.5737
X7.6743Y-4.6737
X7.6743Y-5.0737
X7.6743Y-5.1737
X7.6743Y-5.2737
X7.6743Y-5.3737
X7.6743Y-5.5737
X7.6743Y-5.6737
X7.6743Y-5.7737
X7.7743Y-2.5737
X7.7743Y-2.9737
X7.7743Y-3.0737
X7.7743Y-3.1737
X7.7743Y-3.5737
X7.7743Y-3.6737
X7.7743Y-3.7737
X7.7743Y-3.8737
X7.7743Y-3.9737
X7.7743Y-4.0737
X7.7743Y-4.1737
X7.7743Y-4.2737
X7.7743Y-4.3737
X7.7743Y-4.4737
X7.7743Y-4.5737
X7.7743Y-4.6737
X7.7743Y-5.0737
X7.7743Y-5.1737
X7.7743Y-5.2737
X7.7743Y-5.3737
X7.7743Y-5.4737
X7.7743Y-5.7737
X7.8743Y-2.5737
X7.8743Y-2.6737
X7.8743Y-2.7737
X7.8743Y-2.8737
X7.8743Y-2.9737
X7.8743Y-3.0737
X7.8743Y-3.1737
X7.8743Y-3.5737
X7.8743Y-3.6737
X7.8743Y-3.7737
X7.8743Y-3.8737
X7.8743Y-3.9737
X7.8743Y-4.0737
X7.8743Y-4.1737
X7.8743Y-4.2737
X7.8743Y-4.3737
X7.8743Y-4.4737
X7.8743Y-4.5737
X7.8743Y-4.6737
X7.8743Y-5.0737
X7.8743Y-5.1737
X7.8743Y-5.2737
X7.8743Y-5.3737
X7.8743Y-5.4737
X7.8743Y-5.5737
X7.8743Y-5.6737
X7.8743Y-5.7737
T2
X5.8508Y-4.7378
X5.8508Y-4.8378
X5.9508Y-4.7378
X5.9508Y-4.8378
X6.0508Y-4.8378
X6.0508Y-4.7378
X6.1508Y-4.7378
X6.1508Y-4.8378
X6.2508Y-4.7378
X6.2508Y-4.8378
X6.3508Y-4.7378
X6.3508Y-4.8378
T3
X4.1339Y-2.7106
X4.1339Y-5.6831
X4.3339Y-2.7106
X4.3339Y-5.6831
X4.5339Y-2.7106
X4.5339Y-5.6831
X4.7201Y-2.7106
X4.7201Y-5.6831
X4.9201Y-2.7106
X4.9201Y-5.6831
X5.1201Y-2.7106
X5.1201Y-5.6831
X5.3063Y-2.7106
X5.3063Y-5.6831
X5.5063Y-2.7106
X5.5063Y-5.6831
X5.7063Y-2.7106
X5.7063Y-5.6831
X6.1874Y-2.7106
X6.1874Y-5.6831
X6.3874Y-2.7106
X6.3874Y-5.6831
X6.5874Y-2.7106
X6.5874Y-5.6831
X6.7874Y-2.7106
X6.7874Y-5.6831
X6.9874Y-2.7106
X6.9874Y-5.6831
X7.1874Y-2.7106
X7.1874Y-5.6831
X7.3874Y-2.7106
X7.3874Y-5.6831
X7.5874Y-2.7106
X7.5874Y-5.6831
X7.7874Y-2.7106
X7.7874Y-5.6831
T4
X6.3181Y-5.1642
X6.5843Y-5.1642
X6.8709Y-5.1642
X7.137Y-5.1642
M30
