%TF.GenerationSoftware,KiCad,Pcbnew,9.0.0*%
%TF.CreationDate,2025-03-19T14:29:07+05:00*%
%TF.ProjectId,TC_OAMP,54435f4f-414d-4502-9e6b-696361645f70,rev?*%
%TF.SameCoordinates,Original*%
%TF.FileFunction,Paste,Top*%
%TF.FilePolarity,Positive*%
%FSLAX46Y46*%
G04 Gerber Fmt 4.6, Leading zero omitted, Abs format (unit mm)*
G04 Created by KiCad (PCBNEW 9.0.0) date 2025-03-19 14:29:07*
%MOMM*%
%LPD*%
G01*
G04 APERTURE LIST*
G04 Aperture macros list*
%AMRoundRect*
0 Rectangle with rounded corners*
0 $1 Rounding radius*
0 $2 $3 $4 $5 $6 $7 $8 $9 X,Y pos of 4 corners*
0 Add a 4 corners polygon primitive as box body*
4,1,4,$2,$3,$4,$5,$6,$7,$8,$9,$2,$3,0*
0 Add four circle primitives for the rounded corners*
1,1,$1+$1,$2,$3*
1,1,$1+$1,$4,$5*
1,1,$1+$1,$6,$7*
1,1,$1+$1,$8,$9*
0 Add four rect primitives between the rounded corners*
20,1,$1+$1,$2,$3,$4,$5,0*
20,1,$1+$1,$4,$5,$6,$7,0*
20,1,$1+$1,$6,$7,$8,$9,0*
20,1,$1+$1,$8,$9,$2,$3,0*%
%AMFreePoly0*
4,1,9,3.862500,-0.866500,0.737500,-0.866500,0.737500,-0.450000,-0.737500,-0.450000,-0.737500,0.450000,0.737500,0.450000,0.737500,0.866500,3.862500,0.866500,3.862500,-0.866500,3.862500,-0.866500,$1*%
G04 Aperture macros list end*
%ADD10RoundRect,0.225000X0.375000X-0.225000X0.375000X0.225000X-0.375000X0.225000X-0.375000X-0.225000X0*%
%ADD11RoundRect,0.225000X-0.375000X0.225000X-0.375000X-0.225000X0.375000X-0.225000X0.375000X0.225000X0*%
%ADD12RoundRect,0.200000X-0.275000X0.200000X-0.275000X-0.200000X0.275000X-0.200000X0.275000X0.200000X0*%
%ADD13RoundRect,0.250000X-0.450000X0.262500X-0.450000X-0.262500X0.450000X-0.262500X0.450000X0.262500X0*%
%ADD14R,3.175000X4.950000*%
%ADD15RoundRect,0.225000X0.225000X-0.425000X0.225000X0.425000X-0.225000X0.425000X-0.225000X-0.425000X0*%
%ADD16FreePoly0,90.000000*%
%ADD17R,0.500000X0.800000*%
%ADD18R,0.400000X0.800000*%
%ADD19RoundRect,0.225000X-0.250000X0.225000X-0.250000X-0.225000X0.250000X-0.225000X0.250000X0.225000X0*%
%ADD20RoundRect,0.250000X0.475000X-0.250000X0.475000X0.250000X-0.475000X0.250000X-0.475000X-0.250000X0*%
%ADD21RoundRect,0.150000X0.150000X-0.512500X0.150000X0.512500X-0.150000X0.512500X-0.150000X-0.512500X0*%
%ADD22C,1.000000*%
%ADD23RoundRect,0.100000X-0.100000X0.637500X-0.100000X-0.637500X0.100000X-0.637500X0.100000X0.637500X0*%
%ADD24RoundRect,0.200000X0.275000X-0.200000X0.275000X0.200000X-0.275000X0.200000X-0.275000X-0.200000X0*%
%ADD25RoundRect,0.225000X-0.225000X0.425000X-0.225000X-0.425000X0.225000X-0.425000X0.225000X0.425000X0*%
%ADD26FreePoly0,270.000000*%
%ADD27RoundRect,0.150000X0.150000X-0.587500X0.150000X0.587500X-0.150000X0.587500X-0.150000X-0.587500X0*%
%ADD28RoundRect,0.250000X0.450000X-0.262500X0.450000X0.262500X-0.450000X0.262500X-0.450000X-0.262500X0*%
%ADD29RoundRect,0.150000X-0.150000X0.512500X-0.150000X-0.512500X0.150000X-0.512500X0.150000X0.512500X0*%
%ADD30RoundRect,0.375000X0.625000X0.375000X-0.625000X0.375000X-0.625000X-0.375000X0.625000X-0.375000X0*%
%ADD31RoundRect,0.500000X0.500000X1.400000X-0.500000X1.400000X-0.500000X-1.400000X0.500000X-1.400000X0*%
%ADD32RoundRect,0.225000X0.250000X-0.225000X0.250000X0.225000X-0.250000X0.225000X-0.250000X-0.225000X0*%
%ADD33RoundRect,0.250000X-1.000000X-0.650000X1.000000X-0.650000X1.000000X0.650000X-1.000000X0.650000X0*%
G04 APERTURE END LIST*
D10*
%TO.C,D24*%
X193550000Y-101917499D03*
X193550000Y-98617499D03*
%TD*%
D11*
%TO.C,D23*%
X191050000Y-98617499D03*
X191050000Y-101917499D03*
%TD*%
D12*
%TO.C,R1*%
X114003333Y-81579999D03*
X114003333Y-83229999D03*
%TD*%
%TO.C,R53*%
X166179524Y-81579999D03*
X166179524Y-83229999D03*
%TD*%
%TO.C,R11*%
X124871904Y-81579999D03*
X124871904Y-83229999D03*
%TD*%
D13*
%TO.C,R49*%
X160944286Y-103604999D03*
X160944286Y-105429999D03*
%TD*%
D14*
%TO.C,L1*%
X132385000Y-128400000D03*
X123370000Y-128400000D03*
%TD*%
D12*
%TO.C,R35*%
X148775714Y-81579999D03*
X148775714Y-83229999D03*
%TD*%
D15*
%TO.C,Q7*%
X130707143Y-110767499D03*
D16*
X132207143Y-110679999D03*
D15*
X133707143Y-110767499D03*
%TD*%
D11*
%TO.C,D20*%
X180181429Y-98617499D03*
X180181429Y-101917499D03*
%TD*%
D17*
%TO.C,RN13*%
X181431429Y-85717499D03*
D18*
X180631429Y-85717499D03*
X179831429Y-85717499D03*
D17*
X179031429Y-85717499D03*
X179031429Y-87517499D03*
D18*
X179831429Y-87517499D03*
X180631429Y-87517499D03*
D17*
X181431429Y-87517499D03*
%TD*%
D19*
%TO.C,C3*%
X130907143Y-92629999D03*
X130907143Y-94179999D03*
%TD*%
D12*
%TO.C,R21*%
X135740476Y-81579999D03*
X135740476Y-83229999D03*
%TD*%
D13*
%TO.C,R80*%
X188300000Y-112692499D03*
X188300000Y-114517499D03*
%TD*%
D20*
%TO.C,C12*%
X119675000Y-127829999D03*
X119675000Y-125930001D03*
%TD*%
D13*
%TO.C,R19*%
X128338571Y-103604999D03*
X128338571Y-105429999D03*
%TD*%
D21*
%TO.C,D26*%
X176570001Y-124477500D03*
X178469999Y-124477500D03*
X177520000Y-122202500D03*
%TD*%
D10*
%TO.C,D15*%
X160944286Y-101917499D03*
X160944286Y-98617499D03*
%TD*%
D22*
%TO.C,REF\u002A\u002A*%
X104670000Y-132770000D03*
%TD*%
D12*
%TO.C,R16*%
X123838571Y-99442499D03*
X123838571Y-101092499D03*
%TD*%
D13*
%TO.C,R79*%
X193550000Y-103604999D03*
X193550000Y-105429999D03*
%TD*%
D17*
%TO.C,RN1*%
X116220000Y-85717499D03*
D18*
X115420000Y-85717499D03*
X114620000Y-85717499D03*
D17*
X113820000Y-85717499D03*
X113820000Y-87517499D03*
D18*
X114620000Y-87517499D03*
X115420000Y-87517499D03*
D17*
X116220000Y-87517499D03*
%TD*%
D23*
%TO.C,DA6*%
X169262857Y-90654999D03*
X168612857Y-90654999D03*
X167962857Y-90654999D03*
X167312857Y-90654999D03*
X166662857Y-90654999D03*
X166012857Y-90654999D03*
X165362857Y-90654999D03*
X165362857Y-96379999D03*
X166012857Y-96379999D03*
X166662857Y-96379999D03*
X167312857Y-96379999D03*
X167962857Y-96379999D03*
X168612857Y-96379999D03*
X169262857Y-96379999D03*
%TD*%
D11*
%TO.C,D2*%
X114970000Y-98617499D03*
X114970000Y-101917499D03*
%TD*%
D17*
%TO.C,RN4*%
X122288571Y-99367499D03*
D18*
X121488571Y-99367499D03*
X120688571Y-99367499D03*
D17*
X119888571Y-99367499D03*
X119888571Y-101167499D03*
D18*
X120688571Y-101167499D03*
X121488571Y-101167499D03*
D17*
X122288571Y-101167499D03*
%TD*%
D12*
%TO.C,R42*%
X153144286Y-81579999D03*
X153144286Y-83229999D03*
%TD*%
D24*
%TO.C,R14*%
X127788571Y-94229999D03*
X127788571Y-92579999D03*
%TD*%
D12*
%TO.C,R45*%
X159644286Y-81579999D03*
X159644286Y-83229999D03*
%TD*%
D19*
%TO.C,C4*%
X141775714Y-92629999D03*
X141775714Y-94179999D03*
%TD*%
D10*
%TO.C,D12*%
X150075714Y-101917499D03*
X150075714Y-98617499D03*
%TD*%
D13*
%TO.C,R50*%
X155694286Y-112692499D03*
X155694286Y-114517499D03*
%TD*%
D12*
%TO.C,R17*%
X119578571Y-104152499D03*
X119578571Y-105802499D03*
%TD*%
D25*
%TO.C,Q3*%
X117470000Y-107317499D03*
D26*
X115970000Y-107405000D03*
D25*
X114470000Y-107317499D03*
%TD*%
D24*
%TO.C,R4*%
X116920000Y-94229999D03*
X116920000Y-92579999D03*
%TD*%
D12*
%TO.C,R2*%
X109670000Y-81579999D03*
X109670000Y-83229999D03*
%TD*%
D27*
%TO.C,Q2*%
X108270000Y-114892500D03*
X110170000Y-114892500D03*
X109220000Y-113017499D03*
%TD*%
D28*
%TO.C,R48*%
X157944286Y-105429999D03*
X157944286Y-103604999D03*
%TD*%
D17*
%TO.C,RN8*%
X144025714Y-99367499D03*
D18*
X143225714Y-99367499D03*
X142425714Y-99367499D03*
D17*
X141625714Y-99367499D03*
X141625714Y-101167499D03*
D18*
X142425714Y-101167499D03*
X143225714Y-101167499D03*
D17*
X144025714Y-101167499D03*
%TD*%
D13*
%TO.C,R20*%
X123088571Y-112692499D03*
X123088571Y-114517499D03*
%TD*%
D29*
%TO.C,D1*%
X111619998Y-85017499D03*
X109720000Y-85017499D03*
X110669999Y-87292499D03*
%TD*%
%TO.C,D19*%
X176831428Y-85017499D03*
X174931428Y-85017499D03*
X175881428Y-87292499D03*
%TD*%
D12*
%TO.C,R13*%
X122705238Y-81579999D03*
X122705238Y-83229999D03*
%TD*%
%TO.C,R15*%
X127038571Y-81579999D03*
X127038571Y-83229999D03*
%TD*%
D27*
%TO.C,Q5*%
X119138571Y-114892500D03*
X121038571Y-114892500D03*
X120088571Y-113017500D03*
%TD*%
D13*
%TO.C,R69*%
X182681429Y-103604999D03*
X182681429Y-105429999D03*
%TD*%
D11*
%TO.C,D8*%
X136707143Y-98617499D03*
X136707143Y-101917499D03*
%TD*%
D12*
%TO.C,R22*%
X131407143Y-81579999D03*
X131407143Y-83229999D03*
%TD*%
D19*
%TO.C,C2*%
X120038571Y-92629999D03*
X120038571Y-94179999D03*
%TD*%
D12*
%TO.C,R23*%
X133573810Y-81579999D03*
X133573810Y-83229999D03*
%TD*%
D23*
%TO.C,DA8*%
X191000000Y-90654999D03*
X190350000Y-90654999D03*
X189700000Y-90654999D03*
X189050000Y-90654999D03*
X188400000Y-90654999D03*
X187750000Y-90654999D03*
X187100000Y-90654999D03*
X187100000Y-96379999D03*
X187750000Y-96379999D03*
X188400000Y-96379999D03*
X189050000Y-96379999D03*
X189700000Y-96379999D03*
X190350000Y-96379999D03*
X191000000Y-96379999D03*
%TD*%
D17*
%TO.C,RN2*%
X111420000Y-99367499D03*
D18*
X110620000Y-99367499D03*
X109820000Y-99367499D03*
D17*
X109020000Y-99367499D03*
X109020000Y-101167499D03*
D18*
X109820000Y-101167499D03*
X110620000Y-101167499D03*
D17*
X111420000Y-101167499D03*
%TD*%
D25*
%TO.C,Q6*%
X128338571Y-107317499D03*
D26*
X126838571Y-107404999D03*
D25*
X125338571Y-107317499D03*
%TD*%
D12*
%TO.C,R62*%
X174881429Y-81579999D03*
X174881429Y-83229999D03*
%TD*%
D19*
%TO.C,C5*%
X152644286Y-92629999D03*
X152644286Y-94179999D03*
%TD*%
D12*
%TO.C,R26*%
X134707143Y-99442499D03*
X134707143Y-101092499D03*
%TD*%
%TO.C,R47*%
X152184286Y-104152499D03*
X152184286Y-105802499D03*
%TD*%
%TO.C,R6*%
X112970000Y-99442499D03*
X112970000Y-101092499D03*
%TD*%
D15*
%TO.C,Q4*%
X119838571Y-110767499D03*
D16*
X121338571Y-110679999D03*
D15*
X122838571Y-110767499D03*
%TD*%
D19*
%TO.C,C6*%
X163512857Y-92629999D03*
X163512857Y-94179999D03*
%TD*%
D25*
%TO.C,Q18*%
X171812857Y-107317499D03*
D26*
X170312857Y-107404999D03*
D25*
X168812857Y-107317499D03*
%TD*%
D13*
%TO.C,R39*%
X150075714Y-103604999D03*
X150075714Y-105429999D03*
%TD*%
D12*
%TO.C,R3*%
X111836667Y-81579999D03*
X111836667Y-83229999D03*
%TD*%
D17*
%TO.C,RN16*%
X187500000Y-99367499D03*
D18*
X186700000Y-99367499D03*
X185900000Y-99367499D03*
D17*
X185100000Y-99367499D03*
X185100000Y-101167499D03*
D18*
X185900000Y-101167499D03*
X186700000Y-101167499D03*
D17*
X187500000Y-101167499D03*
%TD*%
D11*
%TO.C,D14*%
X158444286Y-98617499D03*
X158444286Y-101917499D03*
%TD*%
D28*
%TO.C,R78*%
X190550000Y-105429999D03*
X190550000Y-103604999D03*
%TD*%
D13*
%TO.C,R59*%
X171812857Y-103604999D03*
X171812857Y-105429999D03*
%TD*%
D12*
%TO.C,R37*%
X141315714Y-104152499D03*
X141315714Y-105802499D03*
%TD*%
D29*
%TO.C,D7*%
X133357142Y-85017499D03*
X131457142Y-85017499D03*
X132407142Y-87292499D03*
%TD*%
D23*
%TO.C,DA5*%
X158394286Y-90654999D03*
X157744286Y-90654999D03*
X157094286Y-90654999D03*
X156444286Y-90654999D03*
X155794286Y-90654999D03*
X155144286Y-90654999D03*
X154494286Y-90654999D03*
X154494286Y-96379999D03*
X155144286Y-96379999D03*
X155794286Y-96379999D03*
X156444286Y-96379999D03*
X157094286Y-96379999D03*
X157744286Y-96379999D03*
X158394286Y-96379999D03*
%TD*%
D24*
%TO.C,R24*%
X138657143Y-94229999D03*
X138657143Y-92579999D03*
%TD*%
D17*
%TO.C,RN5*%
X137957143Y-85717499D03*
D18*
X137157143Y-85717499D03*
X136357143Y-85717499D03*
D17*
X135557143Y-85717499D03*
X135557143Y-87517499D03*
D18*
X136357143Y-87517499D03*
X137157143Y-87517499D03*
D17*
X137957143Y-87517499D03*
%TD*%
D12*
%TO.C,R56*%
X167312857Y-99442499D03*
X167312857Y-101092499D03*
%TD*%
D10*
%TO.C,D3*%
X117470000Y-101917499D03*
X117470000Y-98617499D03*
%TD*%
D30*
%TO.C,U1*%
X148930000Y-133332499D03*
X148929999Y-131032499D03*
D31*
X142630001Y-131032499D03*
D30*
X148930000Y-128732499D03*
%TD*%
D23*
%TO.C,DA3*%
X136657143Y-90654999D03*
X136007143Y-90654999D03*
X135357143Y-90654999D03*
X134707143Y-90654999D03*
X134057143Y-90654999D03*
X133407143Y-90654999D03*
X132757143Y-90654999D03*
X132757143Y-96379999D03*
X133407143Y-96379999D03*
X134057143Y-96379999D03*
X134707143Y-96379999D03*
X135357143Y-96379999D03*
X136007143Y-96379999D03*
X136657143Y-96379999D03*
%TD*%
D12*
%TO.C,R31*%
X146609047Y-81579999D03*
X146609047Y-83229999D03*
%TD*%
D20*
%TO.C,C9*%
X139747500Y-124712499D03*
X139747500Y-122812501D03*
%TD*%
D25*
%TO.C,Q24*%
X193550000Y-107317499D03*
D26*
X192050000Y-107404999D03*
D25*
X190550000Y-107317499D03*
%TD*%
D13*
%TO.C,R40*%
X144825714Y-112692499D03*
X144825714Y-114517499D03*
%TD*%
D29*
%TO.C,D13*%
X155094285Y-85017499D03*
X153194285Y-85017499D03*
X154144285Y-87292499D03*
%TD*%
D12*
%TO.C,R61*%
X179214762Y-81579999D03*
X179214762Y-83229999D03*
%TD*%
D19*
%TO.C,C8*%
X185250000Y-92629999D03*
X185250000Y-94179999D03*
%TD*%
D28*
%TO.C,R58*%
X168812857Y-105429999D03*
X168812857Y-103604999D03*
%TD*%
D11*
%TO.C,D11*%
X147575714Y-98617499D03*
X147575714Y-101917499D03*
%TD*%
D15*
%TO.C,Q19*%
X174181429Y-110767499D03*
D16*
X175681429Y-110679999D03*
D15*
X177181429Y-110767499D03*
%TD*%
D25*
%TO.C,Q15*%
X160944286Y-107317499D03*
D26*
X159444286Y-107404999D03*
D25*
X157944286Y-107317499D03*
%TD*%
%TO.C,Q21*%
X182681429Y-107317499D03*
D26*
X181181429Y-107404999D03*
D25*
X179681429Y-107317499D03*
%TD*%
D12*
%TO.C,R63*%
X177048096Y-81579999D03*
X177048096Y-83229999D03*
%TD*%
D27*
%TO.C,Q14*%
X151744286Y-114892500D03*
X153644286Y-114892500D03*
X152694286Y-113017500D03*
%TD*%
D12*
%TO.C,R12*%
X120538571Y-81579999D03*
X120538571Y-83229999D03*
%TD*%
D15*
%TO.C,Q22*%
X185050000Y-110767499D03*
D16*
X186550000Y-110679999D03*
D15*
X188050000Y-110767499D03*
%TD*%
D11*
%TO.C,D25*%
X157560000Y-130832500D03*
X157560000Y-134132500D03*
%TD*%
D29*
%TO.C,D16*%
X165962856Y-85017499D03*
X164062856Y-85017499D03*
X165012856Y-87292499D03*
%TD*%
D12*
%TO.C,R46*%
X156444286Y-99442499D03*
X156444286Y-101092499D03*
%TD*%
D10*
%TO.C,D18*%
X171812857Y-101917499D03*
X171812857Y-98617499D03*
%TD*%
D12*
%TO.C,R25*%
X137907143Y-81579999D03*
X137907143Y-83229999D03*
%TD*%
D19*
%TO.C,C11*%
X135657500Y-131535000D03*
X135657500Y-133085000D03*
%TD*%
D17*
%TO.C,RN15*%
X192300000Y-85717499D03*
D18*
X191500000Y-85717499D03*
X190700000Y-85717499D03*
D17*
X189900000Y-85717499D03*
X189900000Y-87517499D03*
D18*
X190700000Y-87517499D03*
X191500000Y-87517499D03*
D17*
X192300000Y-87517499D03*
%TD*%
D15*
%TO.C,Q1*%
X108970000Y-110767499D03*
D16*
X110470000Y-110679998D03*
D15*
X111970000Y-110767499D03*
%TD*%
D29*
%TO.C,D4*%
X122488570Y-85017499D03*
X120588570Y-85017499D03*
X121538570Y-87292499D03*
%TD*%
D15*
%TO.C,Q10*%
X141575714Y-110767499D03*
D16*
X143075714Y-110679999D03*
D15*
X144575714Y-110767499D03*
%TD*%
D11*
%TO.C,D17*%
X169312857Y-98617499D03*
X169312857Y-101917499D03*
%TD*%
D17*
%TO.C,RN12*%
X165762857Y-99367499D03*
D18*
X164962857Y-99367499D03*
X164162857Y-99367499D03*
D17*
X163362857Y-99367499D03*
X163362857Y-101167499D03*
D18*
X164162857Y-101167499D03*
X164962857Y-101167499D03*
D17*
X165762857Y-101167499D03*
%TD*%
D28*
%TO.C,R18*%
X125338571Y-105429999D03*
X125338571Y-103604999D03*
%TD*%
D27*
%TO.C,Q23*%
X184350000Y-114892500D03*
X186250000Y-114892500D03*
X185300000Y-113017500D03*
%TD*%
D12*
%TO.C,R27*%
X130447143Y-104152499D03*
X130447143Y-105802499D03*
%TD*%
D29*
%TO.C,D22*%
X187699999Y-85017499D03*
X185799999Y-85017499D03*
X186749999Y-87292499D03*
%TD*%
D23*
%TO.C,DA7*%
X180131429Y-90654999D03*
X179481429Y-90654999D03*
X178831429Y-90654999D03*
X178181429Y-90654999D03*
X177531429Y-90654999D03*
X176881429Y-90654999D03*
X176231429Y-90654999D03*
X176231429Y-96379999D03*
X176881429Y-96379999D03*
X177531429Y-96379999D03*
X178181429Y-96379999D03*
X178831429Y-96379999D03*
X179481429Y-96379999D03*
X180131429Y-96379999D03*
%TD*%
D12*
%TO.C,R32*%
X142275714Y-81579999D03*
X142275714Y-83229999D03*
%TD*%
D17*
%TO.C,RN3*%
X127088571Y-85717499D03*
D18*
X126288571Y-85717499D03*
X125488571Y-85717499D03*
D17*
X124688571Y-85717499D03*
X124688571Y-87517499D03*
D18*
X125488571Y-87517499D03*
X126288571Y-87517499D03*
D17*
X127088571Y-87517499D03*
%TD*%
%TO.C,RN10*%
X154894286Y-99367499D03*
D18*
X154094286Y-99367499D03*
X153294286Y-99367499D03*
D17*
X152494286Y-99367499D03*
X152494286Y-101167499D03*
D18*
X153294286Y-101167499D03*
X154094286Y-101167499D03*
D17*
X154894286Y-101167499D03*
%TD*%
D10*
%TO.C,D6*%
X128338571Y-101917499D03*
X128338571Y-98617499D03*
%TD*%
D13*
%TO.C,R10*%
X112220000Y-112692499D03*
X112220000Y-114517499D03*
%TD*%
%TO.C,R70*%
X177431429Y-112692499D03*
X177431429Y-114517499D03*
%TD*%
D12*
%TO.C,R65*%
X181381429Y-81579999D03*
X181381429Y-83229999D03*
%TD*%
D23*
%TO.C,DA2*%
X125788571Y-90654999D03*
X125138571Y-90654999D03*
X124488571Y-90654999D03*
X123838571Y-90654999D03*
X123188571Y-90654999D03*
X122538571Y-90654999D03*
X121888571Y-90654999D03*
X121888571Y-96379999D03*
X122538571Y-96379999D03*
X123188571Y-96379999D03*
X123838571Y-96379999D03*
X124488571Y-96379999D03*
X125138571Y-96379999D03*
X125788571Y-96379999D03*
%TD*%
D17*
%TO.C,RN7*%
X148825714Y-85717499D03*
D18*
X148025714Y-85717499D03*
X147225714Y-85717499D03*
D17*
X146425714Y-85717499D03*
X146425714Y-87517499D03*
D18*
X147225714Y-87517499D03*
X148025714Y-87517499D03*
D17*
X148825714Y-87517499D03*
%TD*%
D25*
%TO.C,Q9*%
X139207143Y-107317499D03*
D26*
X137707143Y-107404999D03*
D25*
X136207143Y-107317499D03*
%TD*%
D12*
%TO.C,R55*%
X170512857Y-81579999D03*
X170512857Y-83229999D03*
%TD*%
D24*
%TO.C,R34*%
X149525714Y-94229999D03*
X149525714Y-92579999D03*
%TD*%
D32*
%TO.C,C10*%
X137917500Y-124757500D03*
X137917500Y-123207500D03*
%TD*%
D24*
%TO.C,R82*%
X138817500Y-133135000D03*
X138817500Y-131485000D03*
%TD*%
D12*
%TO.C,R66*%
X178181429Y-99442499D03*
X178181429Y-101092499D03*
%TD*%
%TO.C,R57*%
X163052857Y-104152499D03*
X163052857Y-105802499D03*
%TD*%
%TO.C,R7*%
X108710000Y-104152499D03*
X108710000Y-105802499D03*
%TD*%
D29*
%TO.C,D10*%
X144225713Y-85017499D03*
X142325713Y-85017499D03*
X143275713Y-87292499D03*
%TD*%
D12*
%TO.C,R77*%
X184790000Y-104152499D03*
X184790000Y-105802499D03*
%TD*%
%TO.C,R76*%
X189050000Y-99442499D03*
X189050000Y-101092499D03*
%TD*%
D13*
%TO.C,R30*%
X133957143Y-112692499D03*
X133957143Y-114517499D03*
%TD*%
D24*
%TO.C,R54*%
X171262857Y-94229999D03*
X171262857Y-92579999D03*
%TD*%
D33*
%TO.C,D27*%
X169889999Y-123290000D03*
X173890001Y-123290000D03*
%TD*%
D12*
%TO.C,R36*%
X145575714Y-99442499D03*
X145575714Y-101092499D03*
%TD*%
D28*
%TO.C,R38*%
X147075714Y-105429999D03*
X147075714Y-103604999D03*
%TD*%
%TO.C,R68*%
X179681429Y-105429999D03*
X179681429Y-103604999D03*
%TD*%
D11*
%TO.C,D5*%
X125838571Y-98617499D03*
X125838571Y-101917499D03*
%TD*%
D19*
%TO.C,C7*%
X174381429Y-92629999D03*
X174381429Y-94179999D03*
%TD*%
D12*
%TO.C,R73*%
X187916667Y-81579999D03*
X187916667Y-83229999D03*
%TD*%
D28*
%TO.C,R28*%
X136207143Y-105429999D03*
X136207143Y-103604999D03*
%TD*%
D10*
%TO.C,D9*%
X139207143Y-101917499D03*
X139207143Y-98617499D03*
%TD*%
D28*
%TO.C,R8*%
X114470000Y-105429999D03*
X114470000Y-103604999D03*
%TD*%
D25*
%TO.C,Q12*%
X150075714Y-107317499D03*
D26*
X148575714Y-107404999D03*
D25*
X147075714Y-107317499D03*
%TD*%
D13*
%TO.C,R9*%
X117470000Y-103604999D03*
X117470000Y-105429999D03*
%TD*%
D12*
%TO.C,R67*%
X173921429Y-104152499D03*
X173921429Y-105802499D03*
%TD*%
D27*
%TO.C,Q11*%
X140875714Y-114892500D03*
X142775714Y-114892500D03*
X141825714Y-113017500D03*
%TD*%
D24*
%TO.C,R64*%
X182131429Y-94229999D03*
X182131429Y-92579999D03*
%TD*%
%TO.C,R44*%
X160394286Y-94229999D03*
X160394286Y-92579999D03*
%TD*%
D12*
%TO.C,R5*%
X116170000Y-81579999D03*
X116170000Y-83229999D03*
%TD*%
D13*
%TO.C,R29*%
X139207143Y-103604999D03*
X139207143Y-105429999D03*
%TD*%
D19*
%TO.C,C1*%
X109170000Y-92629999D03*
X109170000Y-94179999D03*
%TD*%
D27*
%TO.C,Q20*%
X173481429Y-114892500D03*
X175381429Y-114892500D03*
X174431429Y-113017500D03*
%TD*%
D19*
%TO.C,C14*%
X151280001Y-131457502D03*
X151280001Y-133007502D03*
%TD*%
%TO.C,C13*%
X153190000Y-131485000D03*
X153190000Y-133035000D03*
%TD*%
D15*
%TO.C,Q16*%
X163312857Y-110767499D03*
D16*
X164812857Y-110679999D03*
D15*
X166312857Y-110767499D03*
%TD*%
D12*
%TO.C,R52*%
X164012857Y-81579999D03*
X164012857Y-83229999D03*
%TD*%
D21*
%TO.C,D28*%
X136605001Y-129667500D03*
X137555000Y-129667500D03*
X138504999Y-129667500D03*
X138504999Y-127392500D03*
X137555000Y-127392500D03*
X136605001Y-127392500D03*
%TD*%
D12*
%TO.C,R72*%
X185750000Y-81579999D03*
X185750000Y-83229999D03*
%TD*%
%TO.C,R81*%
X137217500Y-131485000D03*
X137217500Y-133135000D03*
%TD*%
%TO.C,R75*%
X192250000Y-81579999D03*
X192250000Y-83229999D03*
%TD*%
%TO.C,R33*%
X144442381Y-81579999D03*
X144442381Y-83229999D03*
%TD*%
%TO.C,R43*%
X155310953Y-81579999D03*
X155310953Y-83229999D03*
%TD*%
D15*
%TO.C,Q13*%
X152444286Y-110767499D03*
D16*
X153944286Y-110679999D03*
D15*
X155444286Y-110767499D03*
%TD*%
D17*
%TO.C,RN11*%
X170562857Y-85717499D03*
D18*
X169762857Y-85717499D03*
X168962857Y-85717499D03*
D17*
X168162857Y-85717499D03*
X168162857Y-87517499D03*
D18*
X168962857Y-87517499D03*
X169762857Y-87517499D03*
D17*
X170562857Y-87517499D03*
%TD*%
D10*
%TO.C,D29*%
X135847500Y-124717500D03*
X135847500Y-121417500D03*
%TD*%
%TO.C,D21*%
X182681429Y-101917499D03*
X182681429Y-98617499D03*
%TD*%
D23*
%TO.C,DA4*%
X147525714Y-90654999D03*
X146875714Y-90654999D03*
X146225714Y-90654999D03*
X145575714Y-90654999D03*
X144925714Y-90654999D03*
X144275714Y-90654999D03*
X143625714Y-90654999D03*
X143625714Y-96379999D03*
X144275714Y-96379999D03*
X144925714Y-96379999D03*
X145575714Y-96379999D03*
X146225714Y-96379999D03*
X146875714Y-96379999D03*
X147525714Y-96379999D03*
%TD*%
D17*
%TO.C,RN9*%
X159694286Y-85717499D03*
D18*
X158894286Y-85717499D03*
X158094286Y-85717499D03*
D17*
X157294286Y-85717499D03*
X157294286Y-87517499D03*
D18*
X158094286Y-87517499D03*
X158894286Y-87517499D03*
D17*
X159694286Y-87517499D03*
%TD*%
D22*
%TO.C,REF\u002A\u002A*%
X196190000Y-79410000D03*
%TD*%
D12*
%TO.C,R71*%
X190083333Y-81579999D03*
X190083333Y-83229999D03*
%TD*%
D17*
%TO.C,RN6*%
X133157143Y-99367499D03*
D18*
X132357143Y-99367499D03*
X131557143Y-99367499D03*
D17*
X130757143Y-99367499D03*
X130757143Y-101167499D03*
D18*
X131557143Y-101167499D03*
X132357143Y-101167499D03*
D17*
X133157143Y-101167499D03*
%TD*%
D12*
%TO.C,R51*%
X168346190Y-81579999D03*
X168346190Y-83229999D03*
%TD*%
D23*
%TO.C,DA1*%
X114920000Y-90654999D03*
X114270000Y-90654999D03*
X113620000Y-90654999D03*
X112970000Y-90654999D03*
X112320000Y-90654999D03*
X111670000Y-90654999D03*
X111020000Y-90654999D03*
X111020000Y-96379999D03*
X111670000Y-96379999D03*
X112320000Y-96379999D03*
X112970000Y-96379999D03*
X113620000Y-96379999D03*
X114270000Y-96379999D03*
X114920000Y-96379999D03*
%TD*%
D13*
%TO.C,R60*%
X166562857Y-112692499D03*
X166562857Y-114517499D03*
%TD*%
D27*
%TO.C,Q17*%
X162612857Y-114892500D03*
X164512857Y-114892500D03*
X163562857Y-113017500D03*
%TD*%
D24*
%TO.C,R74*%
X193000000Y-94229999D03*
X193000000Y-92579999D03*
%TD*%
D17*
%TO.C,RN14*%
X176631429Y-99367499D03*
D18*
X175831429Y-99367499D03*
X175031429Y-99367499D03*
D17*
X174231429Y-99367499D03*
X174231429Y-101167499D03*
D18*
X175031429Y-101167499D03*
X175831429Y-101167499D03*
D17*
X176631429Y-101167499D03*
%TD*%
D12*
%TO.C,R41*%
X157477619Y-81579999D03*
X157477619Y-83229999D03*
%TD*%
D27*
%TO.C,Q8*%
X130007143Y-114892500D03*
X131907143Y-114892500D03*
X130957143Y-113017500D03*
%TD*%
M02*
